<svg width="190" height="55" viewBox="0 0 190 55" fill="none" xmlns="http://www.w3.org/2000/svg">
<rect width="190" height="55" rx="27.5" fill="#8000FF"/>
<path d="M42.91 28.6598C42.9264 27.2912 43.289 25.9492 43.9639 24.7585C44.6388 23.5677 45.6043 22.567 46.7701 21.8498C46.0287 20.7942 45.0517 19.9259 43.9166 19.3132C42.7814 18.7005 41.5193 18.3604 40.23 18.32C37.47 18.03 34.8 19.9601 33.4 19.9601C32 19.9601 29.82 18.3498 27.49 18.3898C25.9864 18.4393 24.5213 18.8771 23.2369 19.6603C21.9524 20.4436 20.8924 21.546 20.16 22.86C16.99 28.35 19.3499 36.41 22.3899 40.86C23.9099 43.03 25.6801 45.4598 28.0101 45.3698C30.3401 45.2798 31.1299 43.9201 33.8699 43.9201C36.6099 43.9201 37.3901 45.37 39.7601 45.32C42.1301 45.27 43.76 43.1401 45.2 40.9401C46.2916 39.3953 47.1319 37.6874 47.69 35.8801C46.273 35.2808 45.064 34.2771 44.2139 32.9948C43.3638 31.7125 42.9103 30.2086 42.91 28.6701V28.6598ZM38.43 15.4001C39.7597 13.8034 40.416 11.7518 40.2601 9.67986C38.2283 9.89686 36.3516 10.8675 35 12.4001C33.6678 13.915 32.9915 15.8966 33.1199 17.9098C34.1373 17.9207 35.1439 17.7006 36.0638 17.2658C36.9836 16.831 37.7926 16.1931 38.43 15.4001Z" fill="#FDFDFD"/>
<path d="M59.0568 22V13.2727H62.108C62.7159 13.2727 63.2173 13.3778 63.6122 13.5881C64.0071 13.7955 64.3011 14.0753 64.4943 14.4276C64.6875 14.777 64.7841 15.1648 64.7841 15.5909C64.7841 15.9659 64.7173 16.2756 64.5838 16.5199C64.4531 16.7642 64.2798 16.9574 64.0639 17.0994C63.8509 17.2415 63.6193 17.3466 63.3693 17.4148V17.5C63.6364 17.517 63.9048 17.6108 64.1747 17.7812C64.4446 17.9517 64.6705 18.196 64.8523 18.5142C65.0341 18.8324 65.125 19.2216 65.125 19.6818C65.125 20.1193 65.0256 20.5128 64.8267 20.8622C64.6278 21.2116 64.3139 21.4886 63.8849 21.6932C63.456 21.8977 62.8977 22 62.2102 22H59.0568ZM60.1136 21.0625H62.2102C62.9006 21.0625 63.3906 20.929 63.6804 20.6619C63.973 20.392 64.1193 20.0653 64.1193 19.6818C64.1193 19.3864 64.044 19.1136 63.8935 18.8636C63.7429 18.6108 63.5284 18.4091 63.25 18.2585C62.9716 18.1051 62.642 18.0284 62.2614 18.0284H60.1136V21.0625ZM60.1136 17.108H62.0739C62.392 17.108 62.679 17.0455 62.9347 16.9205C63.1932 16.7955 63.3977 16.6193 63.5483 16.392C63.7017 16.1648 63.7784 15.8977 63.7784 15.5909C63.7784 15.2074 63.6449 14.8821 63.3778 14.6151C63.1108 14.3452 62.6875 14.2102 62.108 14.2102H60.1136V17.108ZM66.7251 22V15.4545H67.6967V16.4432H67.7649C67.8842 16.1193 68.1001 15.8565 68.4126 15.6548C68.7251 15.4531 69.0774 15.3523 69.4695 15.3523C69.5433 15.3523 69.6357 15.3537 69.7464 15.3565C69.8572 15.3594 69.9411 15.3636 69.9979 15.3693V16.392C69.9638 16.3835 69.8857 16.3707 69.7635 16.3537C69.6442 16.3338 69.5178 16.3239 69.3842 16.3239C69.0661 16.3239 68.782 16.3906 68.532 16.5241C68.2848 16.6548 68.0888 16.8366 67.9439 17.0696C67.8018 17.2997 67.7308 17.5625 67.7308 17.858V22H66.7251ZM73.7351 22.1364C73.1044 22.1364 72.5604 21.9972 72.103 21.7188C71.6484 21.4375 71.2976 21.0455 71.0504 20.5426C70.8061 20.0369 70.6839 19.4489 70.6839 18.7784C70.6839 18.108 70.8061 17.517 71.0504 17.0057C71.2976 16.4915 71.6413 16.0909 72.0817 15.804C72.5249 15.5142 73.0419 15.3693 73.6328 15.3693C73.9737 15.3693 74.3104 15.4261 74.6428 15.5398C74.9751 15.6534 75.2777 15.8381 75.5504 16.0938C75.8232 16.3466 76.0405 16.6818 76.2024 17.0994C76.3643 17.517 76.4453 18.0312 76.4453 18.642V19.0682H71.3999V18.1989H75.4226C75.4226 17.8295 75.3487 17.5 75.201 17.2102C75.0561 16.9205 74.8487 16.6918 74.5788 16.5241C74.3118 16.3565 73.9964 16.2727 73.6328 16.2727C73.2322 16.2727 72.8857 16.3722 72.593 16.571C72.3033 16.767 72.0803 17.0227 71.924 17.3381C71.7678 17.6534 71.6896 17.9915 71.6896 18.3523V18.9318C71.6896 19.4261 71.7749 19.8452 71.9453 20.1889C72.1186 20.5298 72.3587 20.7898 72.6655 20.9688C72.9723 21.1449 73.3288 21.233 73.7351 21.233C73.9993 21.233 74.2379 21.196 74.451 21.1222C74.6669 21.0455 74.853 20.9318 75.0092 20.7812C75.1655 20.6278 75.2862 20.4375 75.3714 20.2102L76.343 20.483C76.2408 20.8125 76.0689 21.1023 75.8274 21.3523C75.5859 21.5994 75.2876 21.7926 74.9325 21.9318C74.5774 22.0682 74.1783 22.1364 73.7351 22.1364ZM83.1282 15.4545L80.7077 22H79.685L77.2646 15.4545H78.3555L80.1623 20.6705H80.2305L82.0373 15.4545H83.1282ZM86.9656 22.1364C86.3349 22.1364 85.7908 21.9972 85.3335 21.7188C84.8789 21.4375 84.5281 21.0455 84.2809 20.5426C84.0366 20.0369 83.9144 19.4489 83.9144 18.7784C83.9144 18.108 84.0366 17.517 84.2809 17.0057C84.5281 16.4915 84.8718 16.0909 85.3121 15.804C85.7553 15.5142 86.2724 15.3693 86.8633 15.3693C87.2042 15.3693 87.5408 15.4261 87.8732 15.5398C88.2056 15.6534 88.5082 15.8381 88.7809 16.0938C89.0536 16.3466 89.271 16.6818 89.4329 17.0994C89.5948 17.517 89.6758 18.0312 89.6758 18.642V19.0682H84.6303V18.1989H88.6531C88.6531 17.8295 88.5792 17.5 88.4315 17.2102C88.2866 16.9205 88.0792 16.6918 87.8093 16.5241C87.5423 16.3565 87.2269 16.2727 86.8633 16.2727C86.4627 16.2727 86.1161 16.3722 85.8235 16.571C85.5337 16.767 85.3107 17.0227 85.1545 17.3381C84.9982 17.6534 84.9201 17.9915 84.9201 18.3523V18.9318C84.9201 19.4261 85.0053 19.8452 85.1758 20.1889C85.3491 20.5298 85.5891 20.7898 85.896 20.9688C86.2028 21.1449 86.5593 21.233 86.9656 21.233C87.2298 21.233 87.4684 21.196 87.6815 21.1222C87.8974 21.0455 88.0835 20.9318 88.2397 20.7812C88.396 20.6278 88.5167 20.4375 88.6019 20.2102L89.5735 20.483C89.4712 20.8125 89.2994 21.1023 89.0579 21.3523C88.8164 21.5994 88.5181 21.7926 88.163 21.9318C87.8079 22.0682 87.4087 22.1364 86.9656 22.1364ZM91.2056 22V15.4545H92.1772V16.4773H92.2624C92.3988 16.1278 92.619 15.8565 92.9229 15.6634C93.2269 15.4673 93.592 15.3693 94.0181 15.3693C94.4499 15.3693 94.8093 15.4673 95.0962 15.6634C95.386 15.8565 95.6119 16.1278 95.7738 16.4773H95.842C96.0096 16.1392 96.261 15.8707 96.5962 15.6719C96.9315 15.4702 97.3335 15.3693 97.8022 15.3693C98.3874 15.3693 98.8661 15.5526 99.2383 15.919C99.6104 16.2827 99.7965 16.8494 99.7965 17.6193V22H98.7908V17.6193C98.7908 17.1364 98.6587 16.7912 98.3945 16.5838C98.1303 16.3764 97.8192 16.2727 97.4613 16.2727C97.0011 16.2727 96.6445 16.4119 96.3917 16.6903C96.1388 16.9659 96.0124 17.3153 96.0124 17.7386V22H94.9897V17.517C94.9897 17.1449 94.869 16.8452 94.6275 16.6179C94.386 16.3878 94.0749 16.2727 93.6942 16.2727C93.4329 16.2727 93.1886 16.3423 92.9613 16.4815C92.7369 16.6207 92.555 16.8139 92.4158 17.0611C92.2795 17.3054 92.2113 17.5881 92.2113 17.9091V22H91.2056ZM104.38 22.1364C103.749 22.1364 103.205 21.9972 102.748 21.7188C102.293 21.4375 101.942 21.0455 101.695 20.5426C101.451 20.0369 101.328 19.4489 101.328 18.7784C101.328 18.108 101.451 17.517 101.695 17.0057C101.942 16.4915 102.286 16.0909 102.726 15.804C103.169 15.5142 103.686 15.3693 104.277 15.3693C104.618 15.3693 104.955 15.4261 105.287 15.5398C105.62 15.6534 105.922 15.8381 106.195 16.0938C106.468 16.3466 106.685 16.6818 106.847 17.0994C107.009 17.517 107.09 18.0312 107.09 18.642V19.0682H102.044V18.1989H106.067C106.067 17.8295 105.993 17.5 105.846 17.2102C105.701 16.9205 105.493 16.6918 105.223 16.5241C104.956 16.3565 104.641 16.2727 104.277 16.2727C103.877 16.2727 103.53 16.3722 103.238 16.571C102.948 16.767 102.725 17.0227 102.569 17.3381C102.412 17.6534 102.334 17.9915 102.334 18.3523V18.9318C102.334 19.4261 102.419 19.8452 102.59 20.1889C102.763 20.5298 103.003 20.7898 103.31 20.9688C103.617 21.1449 103.973 21.233 104.38 21.233C104.644 21.233 104.882 21.196 105.096 21.1222C105.311 21.0455 105.498 20.9318 105.654 20.7812C105.81 20.6278 105.931 20.4375 106.016 20.2102L106.988 20.483C106.885 20.8125 106.713 21.1023 106.472 21.3523C106.23 21.5994 105.932 21.7926 105.577 21.9318C105.222 22.0682 104.823 22.1364 104.38 22.1364ZM109.625 18.0625V22H108.62V15.4545H109.591V16.4773H109.676C109.83 16.1449 110.063 15.8778 110.375 15.6761C110.688 15.4716 111.091 15.3693 111.586 15.3693C112.029 15.3693 112.417 15.4602 112.749 15.642C113.081 15.821 113.34 16.0938 113.525 16.4602C113.709 16.8239 113.801 17.2841 113.801 17.8409V22H112.796V17.9091C112.796 17.3949 112.662 16.9943 112.395 16.7074C112.128 16.4176 111.762 16.2727 111.296 16.2727C110.975 16.2727 110.688 16.3423 110.435 16.4815C110.185 16.6207 109.988 16.8239 109.843 17.0909C109.698 17.358 109.625 17.6818 109.625 18.0625ZM118.486 15.4545V16.3068H115.094V15.4545H118.486ZM116.082 13.8864H117.088V20.125C117.088 20.4091 117.129 20.6222 117.212 20.7642C117.297 20.9034 117.405 20.9972 117.536 21.0455C117.669 21.0909 117.81 21.1136 117.957 21.1136C118.068 21.1136 118.159 21.108 118.23 21.0966C118.301 21.0824 118.358 21.071 118.401 21.0625L118.605 21.9659C118.537 21.9915 118.442 22.017 118.32 22.0426C118.197 22.071 118.043 22.0852 117.855 22.0852C117.571 22.0852 117.293 22.0241 117.02 21.902C116.75 21.7798 116.526 21.5938 116.347 21.3438C116.17 21.0938 116.082 20.7784 116.082 20.3977V13.8864ZM122.673 22.1364C122.042 22.1364 121.498 21.9972 121.04 21.7188C120.586 21.4375 120.235 21.0455 119.988 20.5426C119.744 20.0369 119.621 19.4489 119.621 18.7784C119.621 18.108 119.744 17.517 119.988 17.0057C120.235 16.4915 120.579 16.0909 121.019 15.804C121.462 15.5142 121.979 15.3693 122.57 15.3693C122.911 15.3693 123.248 15.4261 123.58 15.5398C123.913 15.6534 124.215 15.8381 124.488 16.0938C124.761 16.3466 124.978 16.6818 125.14 17.0994C125.302 17.517 125.383 18.0312 125.383 18.642V19.0682H120.337V18.1989H124.36C124.36 17.8295 124.286 17.5 124.138 17.2102C123.994 16.9205 123.786 16.6918 123.516 16.5241C123.249 16.3565 122.934 16.2727 122.57 16.2727C122.17 16.2727 121.823 16.3722 121.531 16.571C121.241 16.767 121.018 17.0227 120.862 17.3381C120.705 17.6534 120.627 17.9915 120.627 18.3523V18.9318C120.627 19.4261 120.712 19.8452 120.883 20.1889C121.056 20.5298 121.296 20.7898 121.603 20.9688C121.91 21.1449 122.266 21.233 122.673 21.233C122.937 21.233 123.175 21.196 123.388 21.1222C123.604 21.0455 123.79 20.9318 123.947 20.7812C124.103 20.6278 124.224 20.4375 124.309 20.2102L125.281 20.483C125.178 20.8125 125.006 21.1023 124.765 21.3523C124.523 21.5994 124.225 21.7926 123.87 21.9318C123.515 22.0682 123.116 22.1364 122.673 22.1364ZM131.293 18.0625V22H130.288V15.4545H131.259V16.4773H131.344C131.498 16.1449 131.731 15.8778 132.043 15.6761C132.356 15.4716 132.759 15.3693 133.254 15.3693C133.697 15.3693 134.085 15.4602 134.417 15.642C134.749 15.821 135.008 16.0938 135.192 16.4602C135.377 16.8239 135.469 17.2841 135.469 17.8409V22H134.464V17.9091C134.464 17.3949 134.33 16.9943 134.063 16.7074C133.796 16.4176 133.43 16.2727 132.964 16.2727C132.643 16.2727 132.356 16.3423 132.103 16.4815C131.853 16.6207 131.656 16.8239 131.511 17.0909C131.366 17.358 131.293 17.6818 131.293 18.0625ZM139.966 22.1364C139.375 22.1364 138.857 21.9957 138.411 21.7145C137.968 21.4332 137.621 21.0398 137.371 20.5341C137.124 20.0284 137 19.4375 137 18.7614C137 18.0795 137.124 17.4844 137.371 16.9759C137.621 16.4673 137.968 16.0724 138.411 15.7912C138.857 15.5099 139.375 15.3693 139.966 15.3693C140.557 15.3693 141.074 15.5099 141.517 15.7912C141.963 16.0724 142.31 16.4673 142.557 16.9759C142.807 17.4844 142.932 18.0795 142.932 18.7614C142.932 19.4375 142.807 20.0284 142.557 20.5341C142.31 21.0398 141.963 21.4332 141.517 21.7145C141.074 21.9957 140.557 22.1364 139.966 22.1364ZM139.966 21.233C140.415 21.233 140.784 21.1179 141.074 20.8878C141.364 20.6577 141.578 20.3551 141.718 19.9801C141.857 19.6051 141.926 19.1989 141.926 18.7614C141.926 18.3239 141.857 17.9162 141.718 17.5384C141.578 17.1605 141.364 16.8551 141.074 16.6222C140.784 16.3892 140.415 16.2727 139.966 16.2727C139.517 16.2727 139.148 16.3892 138.858 16.6222C138.569 16.8551 138.354 17.1605 138.215 17.5384C138.076 17.9162 138.006 18.3239 138.006 18.7614C138.006 19.1989 138.076 19.6051 138.215 19.9801C138.354 20.3551 138.569 20.6577 138.858 20.8878C139.148 21.1179 139.517 21.233 139.966 21.233Z" fill="white"/>
<path d="M68.1699 38.0202H61.6099L60.5 40.7702H57.2L63.3499 26.5998H66.6499L72.71 40.7702H69.29L68.1699 38.0202ZM67.1699 35.4499L64.9399 29.9401L62.6899 35.4499H67.1699Z" fill="#FDFDFD"/>
<path d="M85.9099 35.3898C85.9099 38.6898 83.9098 40.9 80.8398 40.9C80.1618 40.9252 79.488 40.7834 78.8777 40.487C78.2674 40.1905 77.7393 39.7483 77.3398 39.1999V44.6999H74.22V29.88H77.3398V31.4801C77.728 30.9345 78.2456 30.4936 78.8459 30.1969C79.4463 29.9002 80.1108 29.7568 80.78 29.7799C83.84 29.7799 85.9099 32.0298 85.9099 35.3898ZM82.75 35.2902C82.786 34.9133 82.7433 34.5326 82.625 34.173C82.5067 33.8134 82.315 33.4822 82.0623 33.2003C81.8095 32.9185 81.5011 32.692 81.1565 32.5353C80.8119 32.3786 80.4386 32.2954 80.0601 32.2902C79.6794 32.2928 79.3033 32.374 78.9558 32.5294C78.6083 32.6848 78.2969 32.9105 78.0413 33.1925C77.7856 33.4745 77.5912 33.8066 77.4705 34.1676C77.3497 34.5286 77.3052 34.9111 77.3398 35.2902C77.3037 35.6696 77.3471 36.052 77.4673 36.4137C77.5874 36.7754 77.7816 37.1079 78.0376 37.3903C78.2936 37.6726 78.6057 37.8985 78.9539 38.0534C79.3021 38.2083 79.679 38.2891 80.0601 38.2902C80.4391 38.2865 80.8131 38.2037 81.1584 38.0475C81.5038 37.8913 81.8129 37.6647 82.0659 37.3825C82.319 37.1003 82.5104 36.7686 82.6282 36.4083C82.7459 36.0481 82.7875 35.6674 82.75 35.2902Z" fill="#FDFDFD"/>
<path d="M99.75 35.3898C99.75 38.6898 97.7499 40.9001 94.6899 40.9001C94.0116 40.927 93.3372 40.786 92.7266 40.4894C92.116 40.1928 91.5881 39.7496 91.1899 39.1999V44.6999H88.0698V29.88H91.1899V31.4801C91.5749 30.9312 92.0918 30.4876 92.6929 30.1906C93.294 29.8935 93.96 29.7523 94.6299 29.7799C97.6899 29.7799 99.75 32.0298 99.75 35.3898ZM96.5999 35.2902C96.6343 34.9128 96.5905 34.5322 96.4709 34.1725C96.3514 33.8129 96.159 33.4816 95.9055 33.1999C95.652 32.9182 95.3429 32.6919 94.9978 32.5353C94.6527 32.3787 94.2788 32.2955 93.8999 32.2902C93.5196 32.2926 93.1441 32.374 92.7971 32.5295C92.4501 32.685 92.1392 32.9109 91.8843 33.193C91.6294 33.4752 91.436 33.8076 91.3164 34.1686C91.1969 34.5296 91.1539 34.9117 91.1899 35.2902C91.1523 35.6691 91.1943 36.0516 91.3132 36.4132C91.4322 36.7749 91.6254 37.1073 91.8806 37.3898C92.1358 37.6723 92.4474 37.8984 92.7952 38.0534C93.1429 38.2084 93.5192 38.2893 93.8999 38.2902C94.2798 38.2879 94.6549 38.2061 95.0015 38.0505C95.348 37.8948 95.6585 37.6688 95.9126 37.3864C96.1667 37.104 96.3592 36.7718 96.4775 36.4108C96.5959 36.0498 96.6374 35.6682 96.5999 35.2902Z" fill="#FDFDFD"/>
<path d="M112.87 29.1901C111.8 29.1901 111.07 29.5798 111.07 30.3498C111.07 32.9598 118.62 31.4998 118.6 36.5998C118.6 39.3798 116.19 40.8801 113.05 40.8801C110.771 40.8641 108.566 40.0703 106.8 38.6301L108.07 36.0202C109.457 37.2584 111.215 38.0033 113.07 38.1398C114.39 38.1398 115.18 37.6602 115.18 36.7902C115.18 34.1102 107.63 35.6701 107.63 30.6501C107.63 28.0801 109.84 26.4601 113.12 26.4601C115.022 26.4587 116.887 26.9924 118.5 28.0002L117.27 30.6501C115.939 29.8224 114.431 29.3221 112.87 29.1901Z" fill="#FDFDFD"/>
<path d="M127.53 40.1701C126.666 40.6559 125.692 40.914 124.7 40.9201C124.244 40.962 123.785 40.9038 123.354 40.7502C122.923 40.5965 122.53 40.3512 122.204 40.0304C121.877 39.7097 121.625 39.3216 121.463 38.8932C121.302 38.4649 121.236 38.0064 121.27 37.55V32.55H119.75V30.4098H121.27V27.4098H124.37V30.4098H127.37V32.57H124.37V37.07C124.37 37.98 124.76 38.34 125.42 38.32C125.929 38.291 126.427 38.1548 126.88 37.9201L127.53 40.1701Z" fill="#FDFDFD"/>
<path d="M140.08 35.3298C140.08 38.6498 137.73 40.9001 134.25 40.9001C130.77 40.9001 128.4 38.6498 128.4 35.3298C128.4 32.0098 130.75 29.78 134.25 29.78C137.75 29.78 140.08 31.9898 140.08 35.3298ZM131.52 35.3298C131.484 35.71 131.527 36.0939 131.648 36.4562C131.769 36.8186 131.964 37.1518 132.221 37.4343C132.478 37.7167 132.791 37.9421 133.141 38.0964C133.49 38.2506 133.868 38.3301 134.25 38.3298C134.631 38.3288 135.007 38.2484 135.355 38.0934C135.702 37.9384 136.014 37.7124 136.269 37.4299C136.524 37.1473 136.718 36.8145 136.837 36.4528C136.956 36.0912 136.998 35.7086 136.96 35.3298C136.998 34.9509 136.956 34.5684 136.837 34.2067C136.718 33.8451 136.524 33.5127 136.269 33.2302C136.014 32.9476 135.702 32.7216 135.355 32.5666C135.007 32.4116 134.631 32.3307 134.25 32.3298C133.864 32.3289 133.483 32.4094 133.13 32.5661C132.778 32.7228 132.463 32.9525 132.205 33.2394C131.947 33.5264 131.753 33.8644 131.635 34.2316C131.517 34.5988 131.478 34.9864 131.52 35.3698V35.3298Z" fill="#FDFDFD"/>
<path d="M148.87 29.7597V32.6997C146.64 32.4897 145.26 33.6998 145.26 35.5298V40.77H142.15V29.8799H145.26V31.8799C145.607 31.2275 146.128 30.6843 146.765 30.31C147.403 29.9358 148.131 29.7452 148.87 29.7597Z" fill="#FDFDFD"/>
<path d="M160.59 36.2801H152.78C152.916 36.9173 153.272 37.4865 153.786 37.887C154.3 38.2876 154.939 38.4938 155.59 38.47C156.102 38.4689 156.609 38.366 157.082 38.1668C157.554 37.9677 157.981 37.6766 158.34 37.3104L159.98 38.97C159.391 39.6094 158.67 40.1134 157.867 40.4466C157.064 40.7798 156.199 40.9346 155.33 40.9002C151.84 40.9002 149.64 38.6699 149.64 35.3699C149.599 34.6234 149.717 33.877 149.984 33.179C150.252 32.481 150.665 31.8473 151.194 31.3196C151.724 30.792 152.359 30.3823 153.058 30.117C153.757 29.8517 154.504 29.7367 155.25 29.7801C159.07 29.7801 160.85 32.3101 160.59 36.2801ZM157.68 34.4403C157.693 34.1221 157.64 33.8048 157.523 33.5086C157.406 33.2125 157.228 32.9438 157.001 32.7205C156.774 32.4973 156.502 32.3243 156.204 32.2122C155.906 32.1002 155.588 32.0517 155.27 32.0701C154.623 32.0683 153.999 32.312 153.524 32.7518C153.049 33.1915 152.758 33.7948 152.71 34.4403H157.68Z" fill="#FDFDFD"/>
</svg>
