<svg width="201" height="70" viewBox="0 0 201 70" fill="none" xmlns="http://www.w3.org/2000/svg">
<rect x="6" y="6" width="190" height="55" rx="27.5" fill="#8000FF"/>
<path d="M48.91 34.6598C48.9264 33.2912 49.289 31.9492 49.9639 30.7585C50.6388 29.5677 51.6043 28.567 52.7701 27.8498C52.0287 26.7942 51.0517 25.9259 49.9166 25.3132C48.7814 24.7005 47.5193 24.3604 46.23 24.32C43.47 24.03 40.8 25.9601 39.4 25.9601C38 25.9601 35.82 24.3498 33.49 24.3898C31.9864 24.4393 30.5213 24.8771 29.2369 25.6603C27.9524 26.4436 26.8924 27.546 26.16 28.86C22.99 34.35 25.3499 42.41 28.3899 46.86C29.9099 49.03 31.6801 51.4598 34.0101 51.3698C36.3401 51.2798 37.1299 49.9201 39.8699 49.9201C42.6099 49.9201 43.3901 51.37 45.7601 51.32C48.1301 51.27 49.76 49.1401 51.2 46.9401C52.2916 45.3953 53.1319 43.6874 53.69 41.8801C52.273 41.2808 51.064 40.2771 50.2139 38.9948C49.3638 37.7125 48.9103 36.2086 48.91 34.6701V34.6598ZM44.43 21.4001C45.7597 19.8034 46.416 17.7518 46.2601 15.6799C44.2283 15.8969 42.3516 16.8675 41 18.4001C39.6678 19.915 38.9915 21.8966 39.1199 23.9098C40.1373 23.9207 41.1439 23.7006 42.0638 23.2658C42.9836 22.831 43.7926 22.1931 44.43 21.4001Z" fill="#FDFDFD"/>
<path d="M72.3 22.7001C72.3019 23.3126 72.1796 23.9192 71.9409 24.4833C71.7022 25.0473 71.3519 25.5572 70.9109 25.9823C70.4699 26.4074 69.9474 26.739 69.375 26.9569C68.8026 27.1748 68.1919 27.2747 67.5798 27.2504H63.9299V18.14H67.6199C68.2294 18.1212 68.8366 18.2257 69.405 18.4467C69.9734 18.6676 70.4914 19.0006 70.9282 19.4262C71.365 19.8518 71.7116 20.3612 71.9473 20.9237C72.1829 21.4862 72.303 22.0902 72.3 22.7001ZM71.25 22.7001C71.2541 22.2206 71.1619 21.7453 70.9788 21.3021C70.7957 20.859 70.5254 20.4572 70.1841 20.1205C69.8427 19.7838 69.4371 19.5192 68.9915 19.3422C68.5458 19.1652 68.0692 19.0795 67.5898 19.0902H64.97V26.2802H67.6299C68.104 26.2909 68.5756 26.2061 69.0164 26.0311C69.4571 25.8562 69.8581 25.5946 70.1958 25.2616C70.5335 24.9286 70.8008 24.531 70.9819 24.0927C71.163 23.6544 71.2541 23.1845 71.25 22.7103V22.7001Z" fill="#FDFDFD"/>
<path d="M75.22 18.4402C75.2227 18.5299 75.2073 18.6188 75.1748 18.7024C75.1424 18.786 75.0935 18.8627 75.031 18.927C74.9685 18.9914 74.8937 19.0425 74.8111 19.0774C74.7284 19.1123 74.6398 19.1302 74.5501 19.1302C74.4608 19.1302 74.3724 19.112 74.2903 19.0769C74.2082 19.0419 74.134 18.991 74.0723 18.9265C74.0106 18.862 73.9628 18.7855 73.9314 18.7019C73.9001 18.6184 73.8859 18.5294 73.8899 18.4402C73.8844 18.3507 73.8974 18.2608 73.9282 18.1765C73.9591 18.0923 74.0071 18.0153 74.0691 17.9505C74.1311 17.8857 74.2058 17.8346 74.2886 17.8001C74.3714 17.7656 74.4604 17.7487 74.5501 17.7503C74.6402 17.7488 74.7295 17.7657 74.8128 17.8001C74.896 17.8345 74.9714 17.8858 75.0342 17.9505C75.097 18.0151 75.1458 18.0918 75.1778 18.1761C75.2097 18.2603 75.2241 18.3502 75.22 18.4402ZM75.0601 20.4402V27.2801H74.0601V20.4402H75.0601Z" fill="#FDFDFD"/>
<path d="M79.29 21.2102C78.52 21.2102 77.9399 21.4899 77.9399 22.1399C77.9399 23.6899 81.76 22.8899 81.76 25.3499C81.76 26.6899 80.57 27.2903 79.25 27.2903C78.2794 27.2958 77.3416 26.9393 76.6199 26.2903L77.01 25.5501C77.6415 26.1034 78.4504 26.4122 79.29 26.4202C80.1 26.4202 80.75 26.1102 80.76 25.4202C80.76 23.7502 76.96 24.5999 76.97 22.1799C76.97 20.8699 78.1099 20.3103 79.3599 20.3103C80.1321 20.3055 80.8894 20.5242 81.54 20.9402L81.1499 21.72C80.5882 21.383 79.945 21.2069 79.29 21.2102Z" fill="#FDFDFD"/>
<path d="M90.4399 23.84C90.475 24.2859 90.4162 24.7342 90.2673 25.1559C90.1185 25.5776 89.8829 25.9636 89.5757 26.2887C89.2685 26.6138 88.8965 26.8706 88.4839 27.0431C88.0712 27.2156 87.6271 27.2999 87.1799 27.2902C86.6376 27.3168 86.0988 27.1888 85.6262 26.9215C85.1536 26.6542 84.7666 26.2584 84.51 25.7799V29.7799H83.51V20.4098H84.51V21.88C84.7635 21.4055 85.1456 21.0119 85.6125 20.7448C86.0795 20.4777 86.6124 20.3477 87.1499 20.3698C87.5996 20.3617 88.0461 20.4473 88.4609 20.6212C88.8758 20.7952 89.2498 21.0536 89.5593 21.38C89.8688 21.7064 90.1069 22.0937 90.2585 22.5172C90.4102 22.9407 90.4719 23.3913 90.4399 23.84ZM89.4399 23.84C89.4606 23.5068 89.4122 23.1728 89.2981 22.859C89.184 22.5453 89.0065 22.2588 88.7766 22.0167C88.5467 21.7747 88.2696 21.5825 87.9622 21.4523C87.6547 21.3221 87.3238 21.2565 86.99 21.2599C86.6549 21.2536 86.3222 21.3169 86.0129 21.4459C85.7036 21.575 85.4244 21.7669 85.1931 22.0094C84.9619 22.252 84.7836 22.54 84.6694 22.8551C84.5553 23.1702 84.5078 23.5056 84.53 23.84C84.5077 24.1739 84.5552 24.5088 84.6694 24.8234C84.7837 25.138 84.9622 25.4254 85.1936 25.6671C85.425 25.9089 85.7042 26.0998 86.0134 26.2277C86.3227 26.3556 86.6554 26.4175 86.99 26.4098C87.3235 26.412 87.6538 26.3455 87.9602 26.214C88.2667 26.0825 88.5426 25.8888 88.7708 25.6457C88.9989 25.4025 89.1744 25.1151 89.2861 24.8009C89.3978 24.4867 89.4434 24.1526 89.4199 23.82L89.4399 23.84Z" fill="#FDFDFD"/>
<path d="M98.4899 23.8201C98.5083 24.2816 98.4306 24.7417 98.2621 25.1717C98.0936 25.6017 97.8379 25.9921 97.5109 26.3181C97.1838 26.6442 96.7927 26.8989 96.3622 27.0662C95.9317 27.2335 95.4713 27.31 95.0099 27.2903C94.5485 27.3117 94.0878 27.2364 93.6571 27.0696C93.2265 26.9028 92.8353 26.6477 92.5087 26.3211C92.1821 25.9945 91.9272 25.6033 91.7604 25.1726C91.5936 24.742 91.5186 24.2815 91.5399 23.8201C91.5199 23.36 91.596 22.9009 91.7636 22.472C91.9311 22.043 92.1862 21.6536 92.5128 21.3289C92.8394 21.0042 93.2304 20.7513 93.6603 20.5862C94.0902 20.4211 94.5499 20.3472 95.0099 20.3699C95.4699 20.3488 95.9293 20.4236 96.359 20.5891C96.7888 20.7547 97.1794 21.0076 97.5065 21.3318C97.8335 21.656 98.0899 22.0446 98.2592 22.4729C98.4284 22.9012 98.507 23.3599 98.4899 23.8201ZM92.5499 23.8201C92.5262 24.1548 92.5726 24.4907 92.6862 24.8064C92.7998 25.1222 92.978 25.4107 93.2096 25.6536C93.4412 25.8965 93.7209 26.0886 94.0309 26.2171C94.3409 26.3456 94.6744 26.408 95.0099 26.4002C95.345 26.4065 95.6777 26.3432 95.987 26.2141C96.2962 26.0851 96.5753 25.8932 96.8065 25.6507C97.0378 25.4081 97.2163 25.12 97.3305 24.805C97.4446 24.4899 97.4921 24.1545 97.4699 23.8201C97.4906 23.4865 97.4421 23.1521 97.3273 22.8382C97.2125 22.5243 97.0337 22.2378 96.8026 21.9964C96.5715 21.7549 96.2931 21.5638 95.9845 21.4353C95.6759 21.3069 95.3441 21.2441 95.0099 21.2503C94.6744 21.2425 94.3409 21.3049 94.0309 21.4334C93.7209 21.5619 93.4412 21.7535 93.2096 21.9964C92.978 22.2392 92.7998 22.5278 92.6862 22.8435C92.5726 23.1593 92.5262 23.4951 92.5499 23.8299V23.8201Z" fill="#FDFDFD"/>
<path d="M106.54 23.0401V27.2501H105.54V23.2501C105.573 22.9849 105.545 22.7158 105.46 22.4625C105.375 22.2092 105.234 21.978 105.048 21.7862C104.862 21.5944 104.635 21.4464 104.385 21.3536C104.134 21.2608 103.866 21.2257 103.6 21.2501C103.301 21.2421 103.003 21.294 102.724 21.4029C102.446 21.5119 102.191 21.6756 101.977 21.8844C101.763 22.0932 101.592 22.343 101.476 22.6187C101.36 22.8945 101.3 23.1906 101.3 23.4898V27.1598H100.3V20.3199H101.3V21.8297C101.53 21.331 101.907 20.915 102.381 20.6378C102.855 20.3606 103.403 20.2357 103.95 20.2799C104.312 20.2506 104.677 20.3033 105.016 20.4342C105.355 20.5651 105.661 20.771 105.91 21.0362C106.159 21.3014 106.345 21.619 106.454 21.9659C106.563 22.3128 106.592 22.6802 106.54 23.0401Z" fill="#FDFDFD"/>
<path d="M111.2 17.9601L109.59 19.2502H108.59L110.15 17.4899L111.2 17.9601ZM109.81 20.4098V27.2502H108.81V20.4098H109.81Z" fill="#FDFDFD"/>
<path d="M112.18 20.4098L114.37 26.2199L116.54 20.4098H117.54L114.84 27.2502H113.84L111.12 20.4098H112.18Z" fill="#FDFDFD"/>
<path d="M124.45 24.2102H118.86C118.903 24.8317 119.186 25.4122 119.649 25.8298C120.111 26.2474 120.717 26.4695 121.34 26.4499C121.735 26.4576 122.127 26.3836 122.492 26.2321C122.857 26.0807 123.187 25.8552 123.46 25.57L124.02 26.1599C123.665 26.5319 123.236 26.825 122.76 27.0197C122.285 27.2145 121.774 27.3068 121.26 27.2903C120.803 27.3091 120.347 27.2321 119.921 27.0642C119.496 26.8963 119.11 26.641 118.789 26.3152C118.468 25.9893 118.218 25.6001 118.056 25.1721C117.895 24.7441 117.824 24.2866 117.85 23.8298C117.826 23.3742 117.897 22.919 118.059 22.4924C118.22 22.0658 118.469 21.6776 118.789 21.3523C119.109 21.0269 119.492 20.7713 119.916 20.6023C120.34 20.4332 120.794 20.354 121.25 20.3698C123.46 20.3698 124.56 21.8902 124.45 24.2102ZM123.54 23.4001C123.545 23.1027 123.488 22.8074 123.373 22.5329C123.258 22.2585 123.088 22.0105 122.873 21.8049C122.658 21.5993 122.403 21.4405 122.124 21.3381C121.844 21.2357 121.547 21.1922 121.25 21.2102C120.644 21.1884 120.053 21.4059 119.606 21.8156C119.159 22.2254 118.891 22.7944 118.86 23.4001H123.54Z" fill="#FDFDFD"/>
<path d="M127.28 17.57V27.2302H126.28V17.57H127.28Z" fill="#FDFDFD"/>
<path d="M139.99 23.04V27.2499H138.99V23.2499C139.022 22.9847 138.995 22.7156 138.91 22.4623C138.825 22.209 138.684 21.9779 138.498 21.7861C138.312 21.5943 138.085 21.4462 137.835 21.3534C137.584 21.2607 137.316 21.2256 137.05 21.2499C136.739 21.2346 136.429 21.2834 136.138 21.394C135.848 21.5046 135.583 21.6745 135.361 21.8925C135.14 22.1105 134.965 22.3719 134.85 22.6606C134.734 22.9493 134.68 23.259 134.69 23.5698V27.2397H133.69V20.3998H134.69V21.9096C134.923 21.411 135.302 20.9957 135.777 20.7187C136.253 20.4417 136.801 20.3164 137.35 20.3598C137.709 20.3247 138.071 20.3702 138.41 20.4931C138.749 20.616 139.056 20.8134 139.309 21.0702C139.562 21.3271 139.755 21.6372 139.873 21.978C139.99 22.3188 140.03 22.6817 139.99 23.04Z" fill="#FDFDFD"/>
<path d="M148.52 23.8201C148.538 24.2816 148.461 24.7417 148.292 25.1717C148.124 25.6017 147.868 25.9921 147.541 26.3181C147.214 26.6442 146.823 26.8989 146.392 27.0662C145.962 27.2335 145.501 27.31 145.04 27.2903C144.579 27.3117 144.118 27.2364 143.687 27.0696C143.256 26.9028 142.865 26.6477 142.539 26.3211C142.212 25.9945 141.957 25.6033 141.79 25.1726C141.624 24.742 141.548 24.2815 141.57 23.8201C141.55 23.36 141.626 22.9009 141.794 22.472C141.961 22.043 142.216 21.6536 142.543 21.3289C142.869 21.0042 143.26 20.7513 143.69 20.5862C144.12 20.4211 144.58 20.3472 145.04 20.3699C145.5 20.3488 145.959 20.4236 146.389 20.5891C146.819 20.7547 147.209 21.0076 147.537 21.3318C147.864 21.656 148.12 22.0446 148.289 22.4729C148.458 22.9012 148.537 23.3599 148.52 23.8201ZM142.58 23.8201C142.556 24.1548 142.603 24.4907 142.716 24.8064C142.83 25.1222 143.008 25.4107 143.24 25.6536C143.471 25.8965 143.751 26.0886 144.061 26.2171C144.371 26.3456 144.704 26.408 145.04 26.4002C145.375 26.4065 145.708 26.3432 146.017 26.2141C146.326 26.0851 146.605 25.8932 146.837 25.6507C147.068 25.4081 147.246 25.12 147.36 24.805C147.475 24.4899 147.522 24.1545 147.5 23.8201C147.521 23.4865 147.472 23.1521 147.357 22.8382C147.242 22.5243 147.064 22.2378 146.833 21.9964C146.602 21.7549 146.323 21.5638 146.014 21.4353C145.706 21.3069 145.374 21.2441 145.04 21.2503C144.704 21.2425 144.371 21.3049 144.061 21.4334C143.751 21.5619 143.471 21.7535 143.24 21.9964C143.008 22.2392 142.83 22.5278 142.716 22.8435C142.603 23.1593 142.556 23.4951 142.58 23.8299V23.8201Z" fill="#FDFDFD"/>
<path d="M74.1699 44.0202H67.6099L66.5 46.7702H63.2L69.3499 32.5998H72.6499L78.71 46.7702H75.29L74.1699 44.0202ZM73.1699 41.4499L70.9399 35.9401L68.6899 41.4499H73.1699Z" fill="#FDFDFD"/>
<path d="M91.9099 41.3898C91.9099 44.6898 89.9098 46.9 86.8398 46.9C86.1618 46.9252 85.488 46.7834 84.8777 46.487C84.2674 46.1905 83.7393 45.7483 83.3398 45.1999V50.6999H80.22V35.88H83.3398V37.4801C83.728 36.9345 84.2456 36.4936 84.8459 36.1969C85.4463 35.9002 86.1108 35.7568 86.78 35.7799C89.84 35.7799 91.9099 38.0298 91.9099 41.3898ZM88.75 41.2902C88.786 40.9133 88.7433 40.5326 88.625 40.173C88.5067 39.8134 88.315 39.4822 88.0623 39.2003C87.8095 38.9185 87.5011 38.692 87.1565 38.5353C86.8119 38.3786 86.4386 38.2954 86.0601 38.2902C85.6794 38.2928 85.3033 38.374 84.9558 38.5294C84.6083 38.6848 84.2969 38.9105 84.0413 39.1925C83.7856 39.4745 83.5912 39.8066 83.4705 40.1676C83.3497 40.5286 83.3052 40.9111 83.3398 41.2902C83.3037 41.6696 83.3471 42.052 83.4673 42.4137C83.5874 42.7754 83.7816 43.1079 84.0376 43.3903C84.2936 43.6726 84.6057 43.8985 84.9539 44.0534C85.3021 44.2083 85.679 44.2891 86.0601 44.2902C86.4391 44.2865 86.8131 44.2037 87.1584 44.0475C87.5038 43.8913 87.8129 43.6647 88.0659 43.3825C88.319 43.1003 88.5104 42.7686 88.6282 42.4083C88.7459 42.0481 88.7875 41.6674 88.75 41.2902Z" fill="#FDFDFD"/>
<path d="M105.75 41.3898C105.75 44.6898 103.75 46.9001 100.69 46.9001C100.012 46.927 99.3372 46.786 98.7266 46.4894C98.116 46.1928 97.5881 45.7496 97.1899 45.1999V50.6999H94.0698V35.88H97.1899V37.4801C97.5749 36.9312 98.0918 36.4876 98.6929 36.1906C99.294 35.8935 99.96 35.7523 100.63 35.7799C103.69 35.7799 105.75 38.0298 105.75 41.3898ZM102.6 41.2902C102.634 40.9128 102.59 40.5322 102.471 40.1725C102.351 39.8129 102.159 39.4816 101.906 39.1999C101.652 38.9182 101.343 38.6919 100.998 38.5353C100.653 38.3787 100.279 38.2955 99.8999 38.2902C99.5196 38.2926 99.1441 38.374 98.7971 38.5295C98.4501 38.685 98.1392 38.9109 97.8843 39.193C97.6294 39.4752 97.436 39.8076 97.3164 40.1686C97.1969 40.5296 97.1539 40.9117 97.1899 41.2902C97.1523 41.6691 97.1943 42.0516 97.3132 42.4132C97.4322 42.7749 97.6254 43.1073 97.8806 43.3898C98.1358 43.6723 98.4474 43.8984 98.7952 44.0534C99.1429 44.2084 99.5192 44.2893 99.8999 44.2902C100.28 44.2879 100.655 44.2061 101.001 44.0505C101.348 43.8948 101.658 43.6688 101.913 43.3864C102.167 43.104 102.359 42.7718 102.478 42.4108C102.596 42.0498 102.637 41.6682 102.6 41.2902Z" fill="#FDFDFD"/>
<path d="M118.87 35.1901C117.8 35.1901 117.07 35.5798 117.07 36.3498C117.07 38.9598 124.62 37.4998 124.6 42.5998C124.6 45.3798 122.19 46.8801 119.05 46.8801C116.771 46.8641 114.566 46.0703 112.8 44.6301L114.07 42.0202C115.457 43.2584 117.215 44.0033 119.07 44.1398C120.39 44.1398 121.18 43.6602 121.18 42.7902C121.18 40.1102 113.63 41.6701 113.63 36.6501C113.63 34.0801 115.84 32.4601 119.12 32.4601C121.022 32.4587 122.887 32.9924 124.5 34.0002L123.27 36.6501C121.939 35.8224 120.431 35.3221 118.87 35.1901Z" fill="#FDFDFD"/>
<path d="M133.53 46.1701C132.666 46.6559 131.692 46.914 130.7 46.9201C130.244 46.962 129.785 46.9038 129.354 46.7502C128.923 46.5965 128.53 46.3512 128.204 46.0304C127.877 45.7097 127.625 45.3216 127.463 44.8932C127.302 44.4649 127.236 44.0064 127.27 43.55V38.55H125.75V36.4098H127.27V33.4098H130.37V36.4098H133.37V38.57H130.37V43.07C130.37 43.98 130.76 44.34 131.42 44.32C131.929 44.291 132.427 44.1548 132.88 43.9201L133.53 46.1701Z" fill="#FDFDFD"/>
<path d="M146.08 41.3298C146.08 44.6498 143.73 46.9001 140.25 46.9001C136.77 46.9001 134.4 44.6498 134.4 41.3298C134.4 38.0098 136.75 35.78 140.25 35.78C143.75 35.78 146.08 37.9898 146.08 41.3298ZM137.52 41.3298C137.484 41.71 137.527 42.0939 137.648 42.4562C137.769 42.8186 137.964 43.1518 138.221 43.4343C138.478 43.7167 138.791 43.9421 139.141 44.0964C139.49 44.2506 139.868 44.3301 140.25 44.3298C140.631 44.3288 141.007 44.2484 141.355 44.0934C141.702 43.9384 142.014 43.7124 142.269 43.4299C142.524 43.1473 142.718 42.8145 142.837 42.4528C142.956 42.0912 142.998 41.7086 142.96 41.3298C142.998 40.9509 142.956 40.5684 142.837 40.2067C142.718 39.8451 142.524 39.5127 142.269 39.2302C142.014 38.9476 141.702 38.7216 141.355 38.5666C141.007 38.4116 140.631 38.3307 140.25 38.3298C139.864 38.3289 139.483 38.4094 139.13 38.5661C138.778 38.7228 138.463 38.9525 138.205 39.2394C137.947 39.5264 137.753 39.8644 137.635 40.2316C137.517 40.5988 137.478 40.9864 137.52 41.3698V41.3298Z" fill="#FDFDFD"/>
<path d="M154.87 35.7597V38.6997C152.64 38.4897 151.26 39.6998 151.26 41.5298V46.77H148.15V35.8799H151.26V37.8799C151.607 37.2275 152.128 36.6843 152.765 36.31C153.403 35.9358 154.131 35.7452 154.87 35.7597Z" fill="#FDFDFD"/>
<path d="M166.59 42.2801H158.78C158.916 42.9173 159.272 43.4865 159.786 43.887C160.3 44.2876 160.939 44.4938 161.59 44.47C162.102 44.4689 162.609 44.366 163.082 44.1668C163.554 43.9677 163.981 43.6766 164.34 43.3104L165.98 44.97C165.391 45.6094 164.67 46.1134 163.867 46.4466C163.064 46.7798 162.199 46.9346 161.33 46.9002C157.84 46.9002 155.64 44.6699 155.64 41.3699C155.599 40.6234 155.717 39.877 155.984 39.179C156.252 38.481 156.665 37.8473 157.194 37.3196C157.724 36.792 158.359 36.3823 159.058 36.117C159.757 35.8517 160.504 35.7367 161.25 35.7801C165.07 35.7801 166.85 38.3101 166.59 42.2801ZM163.68 40.4403C163.693 40.1221 163.64 39.8048 163.523 39.5086C163.406 39.2125 163.228 38.9438 163.001 38.7205C162.774 38.4973 162.502 38.3243 162.204 38.2122C161.906 38.1002 161.588 38.0517 161.27 38.0701C160.623 38.0683 159.999 38.312 159.524 38.7518C159.049 39.1915 158.758 39.7948 158.71 40.4403H163.68Z" fill="#FDFDFD"/>
</svg>
