<svg width="59" height="60" viewBox="0 0 59 60" fill="none" xmlns="http://www.w3.org/2000/svg">
<path d="M0 29.9999C0 46.1696 13.1081 59.2777 29.2778 59.2777C45.4474 59.2777 58.5556 46.1696 58.5556 29.9999C58.5556 13.8303 45.4474 0.722168 29.2778 0.722168C13.1081 0.722168 0 13.8303 0 29.9999Z" fill="white"/>
<path d="M43.9167 30C43.9167 21.9486 37.3292 15.3611 29.2778 15.3611C21.2264 15.3611 14.6389 21.9486 14.6389 30C14.6389 37.3194 19.9455 43.358 26.899 44.4559V34.2087H23.2393V30H26.899V26.7062C26.899 23.0465 29.0948 21.0337 32.3886 21.0337C34.0354 21.0337 35.6823 21.3996 35.6823 21.3996V25.0593H33.8525C32.0226 25.0593 31.4736 26.1573 31.4736 27.2552V30H35.4993L34.7674 34.2087H31.2907V44.6389C38.6101 43.5409 43.9167 37.3194 43.9167 30Z" fill="#8000FF"/>
</svg>
