<svg width="59" height="60" viewBox="0 0 59 60" fill="none" xmlns="http://www.w3.org/2000/svg">
<path d="M0.444458 29.9999C0.444458 46.1696 13.5526 59.2777 29.7222 59.2777C45.8919 59.2777 59 46.1696 59 29.9999C59 13.8303 45.8919 0.722168 29.7222 0.722168C13.5526 0.722168 0.444458 13.8303 0.444458 29.9999Z" fill="#FDFDFD"/>
<path fill-rule="evenodd" clip-rule="evenodd" d="M29.6775 15.7124C21.6194 15.7124 15.0834 22.2484 15.0834 30.3065C15.0834 36.753 19.2915 42.2146 25.0217 44.1844C25.738 44.2739 26.0066 43.8262 26.0066 43.4681C26.0066 43.11 26.0066 42.2146 26.0066 40.9611C21.9775 41.8565 21.0822 38.9914 21.0822 38.9914C20.4554 37.2902 19.4706 36.8425 19.4706 36.8425C18.1275 35.9472 19.5601 35.9472 19.5601 35.9472C20.9927 36.0367 21.7985 37.4693 21.7985 37.4693C23.1415 39.7076 25.2008 39.0809 26.0066 38.7228C26.0961 37.7379 26.5438 37.1111 26.9019 36.753C23.6787 36.3949 20.2764 35.1414 20.2764 29.5007C20.2764 27.8891 20.8136 26.6356 21.7985 25.5612C21.7089 25.2926 21.1717 23.7705 21.9775 21.8007C21.9775 21.8007 23.231 21.4426 26.0066 23.3228C27.1705 22.9647 28.424 22.8752 29.6775 22.8752C30.931 22.8752 32.1845 23.0542 33.3484 23.3228C36.124 21.4426 37.3775 21.8007 37.3775 21.8007C38.1833 23.7705 37.6461 25.2926 37.5565 25.6507C38.4519 26.6356 39.0786 27.9786 39.0786 29.5903C39.0786 35.2309 35.6763 36.3949 32.4531 36.753C32.9903 37.2007 33.4379 38.096 33.4379 39.439C33.4379 41.4088 33.4379 42.9309 33.4379 43.4681C33.4379 43.8262 33.7065 44.2739 34.4228 44.1844C40.2426 42.2146 44.3612 36.753 44.3612 30.3065C44.2716 22.2484 37.7356 15.7124 29.6775 15.7124Z" fill="#8000FF"/>
</svg>
