<svg width="190" height="55" viewBox="0 0 190 55" fill="none" xmlns="http://www.w3.org/2000/svg">
<rect width="190" height="55" rx="27.5" fill="#8000FF"/>
<path d="M25.8265 10.394L41.6479 27.141L45.9763 22.5169L26.8118 10.7119C26.5125 10.5224 26.1742 10.4134 25.8265 10.394ZM24.5033 11.1785C24.3533 11.4675 24.2745 11.7924 24.2744 12.1226V44.6513C24.2754 44.8958 24.3227 45.1379 24.4136 45.3624L40.5931 28.2332L24.5033 11.1785ZM47.2998 23.3123L42.6729 28.2332L47.2998 33.1229L52.9615 29.6651C53.1376 29.5924 53.2986 29.4832 53.435 29.344C53.5714 29.2049 53.6806 29.0384 53.7564 28.8541C53.8322 28.6698 53.8733 28.4717 53.8769 28.2705C53.8805 28.0692 53.8467 27.8689 53.7775 27.6816C53.7082 27.489 53.6027 27.3135 53.4676 27.1658C53.3324 27.0181 53.1704 26.9011 52.9914 26.8225C52.5038 26.5467 48.9217 24.3199 47.2998 23.3123ZM41.6479 29.3259L25.7271 46.1894C26.0164 46.1773 26.2992 46.0938 26.5531 45.9455L39.807 37.7683L46.046 33.95L41.6479 29.3259Z" fill="#FDFDFD"/>
<path d="M59.0568 23V14.2727H62.108C62.7159 14.2727 63.2173 14.3778 63.6122 14.5881C64.0071 14.7955 64.3011 15.0753 64.4943 15.4276C64.6875 15.777 64.7841 16.1648 64.7841 16.5909C64.7841 16.9659 64.7173 17.2756 64.5838 17.5199C64.4531 17.7642 64.2798 17.9574 64.0639 18.0994C63.8509 18.2415 63.6193 18.3466 63.3693 18.4148V18.5C63.6364 18.517 63.9048 18.6108 64.1747 18.7812C64.4446 18.9517 64.6705 19.196 64.8523 19.5142C65.0341 19.8324 65.125 20.2216 65.125 20.6818C65.125 21.1193 65.0256 21.5128 64.8267 21.8622C64.6278 22.2116 64.3139 22.4886 63.8849 22.6932C63.456 22.8977 62.8977 23 62.2102 23H59.0568ZM60.1136 22.0625H62.2102C62.9006 22.0625 63.3906 21.929 63.6804 21.6619C63.973 21.392 64.1193 21.0653 64.1193 20.6818C64.1193 20.3864 64.044 20.1136 63.8935 19.8636C63.7429 19.6108 63.5284 19.4091 63.25 19.2585C62.9716 19.1051 62.642 19.0284 62.2614 19.0284H60.1136V22.0625ZM60.1136 18.108H62.0739C62.392 18.108 62.679 18.0455 62.9347 17.9205C63.1932 17.7955 63.3977 17.6193 63.5483 17.392C63.7017 17.1648 63.7784 16.8977 63.7784 16.5909C63.7784 16.2074 63.6449 15.8821 63.3778 15.6151C63.1108 15.3452 62.6875 15.2102 62.108 15.2102H60.1136V18.108ZM66.7251 23V16.4545H67.6967V17.4432H67.7649C67.8842 17.1193 68.1001 16.8565 68.4126 16.6548C68.7251 16.4531 69.0774 16.3523 69.4695 16.3523C69.5433 16.3523 69.6357 16.3537 69.7464 16.3565C69.8572 16.3594 69.9411 16.3636 69.9979 16.3693V17.392C69.9638 17.3835 69.8857 17.3707 69.7635 17.3537C69.6442 17.3338 69.5178 17.3239 69.3842 17.3239C69.0661 17.3239 68.782 17.3906 68.532 17.5241C68.2848 17.6548 68.0888 17.8366 67.9439 18.0696C67.8018 18.2997 67.7308 18.5625 67.7308 18.858V23H66.7251ZM73.7351 23.1364C73.1044 23.1364 72.5604 22.9972 72.103 22.7188C71.6484 22.4375 71.2976 22.0455 71.0504 21.5426C70.8061 21.0369 70.6839 20.4489 70.6839 19.7784C70.6839 19.108 70.8061 18.517 71.0504 18.0057C71.2976 17.4915 71.6413 17.0909 72.0817 16.804C72.5249 16.5142 73.0419 16.3693 73.6328 16.3693C73.9737 16.3693 74.3104 16.4261 74.6428 16.5398C74.9751 16.6534 75.2777 16.8381 75.5504 17.0938C75.8232 17.3466 76.0405 17.6818 76.2024 18.0994C76.3643 18.517 76.4453 19.0312 76.4453 19.642V20.0682H71.3999V19.1989H75.4226C75.4226 18.8295 75.3487 18.5 75.201 18.2102C75.0561 17.9205 74.8487 17.6918 74.5788 17.5241C74.3118 17.3565 73.9964 17.2727 73.6328 17.2727C73.2322 17.2727 72.8857 17.3722 72.593 17.571C72.3033 17.767 72.0803 18.0227 71.924 18.3381C71.7678 18.6534 71.6896 18.9915 71.6896 19.3523V19.9318C71.6896 20.4261 71.7749 20.8452 71.9453 21.1889C72.1186 21.5298 72.3587 21.7898 72.6655 21.9688C72.9723 22.1449 73.3288 22.233 73.7351 22.233C73.9993 22.233 74.2379 22.196 74.451 22.1222C74.6669 22.0455 74.853 21.9318 75.0092 21.7812C75.1655 21.6278 75.2862 21.4375 75.3714 21.2102L76.343 21.483C76.2408 21.8125 76.0689 22.1023 75.8274 22.3523C75.5859 22.5994 75.2876 22.7926 74.9325 22.9318C74.5774 23.0682 74.1783 23.1364 73.7351 23.1364ZM83.1282 16.4545L80.7077 23H79.685L77.2646 16.4545H78.3555L80.1623 21.6705H80.2305L82.0373 16.4545H83.1282ZM86.9656 23.1364C86.3349 23.1364 85.7908 22.9972 85.3335 22.7188C84.8789 22.4375 84.5281 22.0455 84.2809 21.5426C84.0366 21.0369 83.9144 20.4489 83.9144 19.7784C83.9144 19.108 84.0366 18.517 84.2809 18.0057C84.5281 17.4915 84.8718 17.0909 85.3121 16.804C85.7553 16.5142 86.2724 16.3693 86.8633 16.3693C87.2042 16.3693 87.5408 16.4261 87.8732 16.5398C88.2056 16.6534 88.5082 16.8381 88.7809 17.0938C89.0536 17.3466 89.271 17.6818 89.4329 18.0994C89.5948 18.517 89.6758 19.0312 89.6758 19.642V20.0682H84.6303V19.1989H88.6531C88.6531 18.8295 88.5792 18.5 88.4315 18.2102C88.2866 17.9205 88.0792 17.6918 87.8093 17.5241C87.5423 17.3565 87.2269 17.2727 86.8633 17.2727C86.4627 17.2727 86.1161 17.3722 85.8235 17.571C85.5337 17.767 85.3107 18.0227 85.1545 18.3381C84.9982 18.6534 84.9201 18.9915 84.9201 19.3523V19.9318C84.9201 20.4261 85.0053 20.8452 85.1758 21.1889C85.3491 21.5298 85.5891 21.7898 85.896 21.9688C86.2028 22.1449 86.5593 22.233 86.9656 22.233C87.2298 22.233 87.4684 22.196 87.6815 22.1222C87.8974 22.0455 88.0835 21.9318 88.2397 21.7812C88.396 21.6278 88.5167 21.4375 88.6019 21.2102L89.5735 21.483C89.4712 21.8125 89.2994 22.1023 89.0579 22.3523C88.8164 22.5994 88.5181 22.7926 88.163 22.9318C87.8079 23.0682 87.4087 23.1364 86.9656 23.1364ZM91.2056 23V16.4545H92.1772V17.4773H92.2624C92.3988 17.1278 92.619 16.8565 92.9229 16.6634C93.2269 16.4673 93.592 16.3693 94.0181 16.3693C94.4499 16.3693 94.8093 16.4673 95.0962 16.6634C95.386 16.8565 95.6119 17.1278 95.7738 17.4773H95.842C96.0096 17.1392 96.261 16.8707 96.5962 16.6719C96.9315 16.4702 97.3335 16.3693 97.8022 16.3693C98.3874 16.3693 98.8661 16.5526 99.2383 16.919C99.6104 17.2827 99.7965 17.8494 99.7965 18.6193V23H98.7908V18.6193C98.7908 18.1364 98.6587 17.7912 98.3945 17.5838C98.1303 17.3764 97.8192 17.2727 97.4613 17.2727C97.0011 17.2727 96.6445 17.4119 96.3917 17.6903C96.1388 17.9659 96.0124 18.3153 96.0124 18.7386V23H94.9897V18.517C94.9897 18.1449 94.869 17.8452 94.6275 17.6179C94.386 17.3878 94.0749 17.2727 93.6942 17.2727C93.4329 17.2727 93.1886 17.3423 92.9613 17.4815C92.7369 17.6207 92.555 17.8139 92.4158 18.0611C92.2795 18.3054 92.2113 18.5881 92.2113 18.9091V23H91.2056ZM104.38 23.1364C103.749 23.1364 103.205 22.9972 102.748 22.7188C102.293 22.4375 101.942 22.0455 101.695 21.5426C101.451 21.0369 101.328 20.4489 101.328 19.7784C101.328 19.108 101.451 18.517 101.695 18.0057C101.942 17.4915 102.286 17.0909 102.726 16.804C103.169 16.5142 103.686 16.3693 104.277 16.3693C104.618 16.3693 104.955 16.4261 105.287 16.5398C105.62 16.6534 105.922 16.8381 106.195 17.0938C106.468 17.3466 106.685 17.6818 106.847 18.0994C107.009 18.517 107.09 19.0312 107.09 19.642V20.0682H102.044V19.1989H106.067C106.067 18.8295 105.993 18.5 105.846 18.2102C105.701 17.9205 105.493 17.6918 105.223 17.5241C104.956 17.3565 104.641 17.2727 104.277 17.2727C103.877 17.2727 103.53 17.3722 103.238 17.571C102.948 17.767 102.725 18.0227 102.569 18.3381C102.412 18.6534 102.334 18.9915 102.334 19.3523V19.9318C102.334 20.4261 102.419 20.8452 102.59 21.1889C102.763 21.5298 103.003 21.7898 103.31 21.9688C103.617 22.1449 103.973 22.233 104.38 22.233C104.644 22.233 104.882 22.196 105.096 22.1222C105.311 22.0455 105.498 21.9318 105.654 21.7812C105.81 21.6278 105.931 21.4375 106.016 21.2102L106.988 21.483C106.885 21.8125 106.713 22.1023 106.472 22.3523C106.23 22.5994 105.932 22.7926 105.577 22.9318C105.222 23.0682 104.823 23.1364 104.38 23.1364ZM109.625 19.0625V23H108.62V16.4545H109.591V17.4773H109.676C109.83 17.1449 110.063 16.8778 110.375 16.6761C110.688 16.4716 111.091 16.3693 111.586 16.3693C112.029 16.3693 112.417 16.4602 112.749 16.642C113.081 16.821 113.34 17.0938 113.525 17.4602C113.709 17.8239 113.801 18.2841 113.801 18.8409V23H112.796V18.9091C112.796 18.3949 112.662 17.9943 112.395 17.7074C112.128 17.4176 111.762 17.2727 111.296 17.2727C110.975 17.2727 110.688 17.3423 110.435 17.4815C110.185 17.6207 109.988 17.8239 109.843 18.0909C109.698 18.358 109.625 18.6818 109.625 19.0625ZM118.486 16.4545V17.3068H115.094V16.4545H118.486ZM116.082 14.8864H117.088V21.125C117.088 21.4091 117.129 21.6222 117.212 21.7642C117.297 21.9034 117.405 21.9972 117.536 22.0455C117.669 22.0909 117.81 22.1136 117.957 22.1136C118.068 22.1136 118.159 22.108 118.23 22.0966C118.301 22.0824 118.358 22.071 118.401 22.0625L118.605 22.9659C118.537 22.9915 118.442 23.017 118.32 23.0426C118.197 23.071 118.043 23.0852 117.855 23.0852C117.571 23.0852 117.293 23.0241 117.02 22.902C116.75 22.7798 116.526 22.5938 116.347 22.3438C116.17 22.0938 116.082 21.7784 116.082 21.3977V14.8864ZM122.673 23.1364C122.042 23.1364 121.498 22.9972 121.04 22.7188C120.586 22.4375 120.235 22.0455 119.988 21.5426C119.744 21.0369 119.621 20.4489 119.621 19.7784C119.621 19.108 119.744 18.517 119.988 18.0057C120.235 17.4915 120.579 17.0909 121.019 16.804C121.462 16.5142 121.979 16.3693 122.57 16.3693C122.911 16.3693 123.248 16.4261 123.58 16.5398C123.913 16.6534 124.215 16.8381 124.488 17.0938C124.761 17.3466 124.978 17.6818 125.14 18.0994C125.302 18.517 125.383 19.0312 125.383 19.642V20.0682H120.337V19.1989H124.36C124.36 18.8295 124.286 18.5 124.138 18.2102C123.994 17.9205 123.786 17.6918 123.516 17.5241C123.249 17.3565 122.934 17.2727 122.57 17.2727C122.17 17.2727 121.823 17.3722 121.531 17.571C121.241 17.767 121.018 18.0227 120.862 18.3381C120.705 18.6534 120.627 18.9915 120.627 19.3523V19.9318C120.627 20.4261 120.712 20.8452 120.883 21.1889C121.056 21.5298 121.296 21.7898 121.603 21.9688C121.91 22.1449 122.266 22.233 122.673 22.233C122.937 22.233 123.175 22.196 123.388 22.1222C123.604 22.0455 123.79 21.9318 123.947 21.7812C124.103 21.6278 124.224 21.4375 124.309 21.2102L125.281 21.483C125.178 21.8125 125.006 22.1023 124.765 22.3523C124.523 22.5994 124.225 22.7926 123.87 22.9318C123.515 23.0682 123.116 23.1364 122.673 23.1364ZM131.293 19.0625V23H130.288V16.4545H131.259V17.4773H131.344C131.498 17.1449 131.731 16.8778 132.043 16.6761C132.356 16.4716 132.759 16.3693 133.254 16.3693C133.697 16.3693 134.085 16.4602 134.417 16.642C134.749 16.821 135.008 17.0938 135.192 17.4602C135.377 17.8239 135.469 18.2841 135.469 18.8409V23H134.464V18.9091C134.464 18.3949 134.33 17.9943 134.063 17.7074C133.796 17.4176 133.43 17.2727 132.964 17.2727C132.643 17.2727 132.356 17.3423 132.103 17.4815C131.853 17.6207 131.656 17.8239 131.511 18.0909C131.366 18.358 131.293 18.6818 131.293 19.0625ZM139.966 23.1364C139.375 23.1364 138.857 22.9957 138.411 22.7145C137.968 22.4332 137.621 22.0398 137.371 21.5341C137.124 21.0284 137 20.4375 137 19.7614C137 19.0795 137.124 18.4844 137.371 17.9759C137.621 17.4673 137.968 17.0724 138.411 16.7912C138.857 16.5099 139.375 16.3693 139.966 16.3693C140.557 16.3693 141.074 16.5099 141.517 16.7912C141.963 17.0724 142.31 17.4673 142.557 17.9759C142.807 18.4844 142.932 19.0795 142.932 19.7614C142.932 20.4375 142.807 21.0284 142.557 21.5341C142.31 22.0398 141.963 22.4332 141.517 22.7145C141.074 22.9957 140.557 23.1364 139.966 23.1364ZM139.966 22.233C140.415 22.233 140.784 22.1179 141.074 21.8878C141.364 21.6577 141.578 21.3551 141.718 20.9801C141.857 20.6051 141.926 20.1989 141.926 19.7614C141.926 19.3239 141.857 18.9162 141.718 18.5384C141.578 18.1605 141.364 17.8551 141.074 17.6222C140.784 17.3892 140.415 17.2727 139.966 17.2727C139.517 17.2727 139.148 17.3892 138.858 17.6222C138.569 17.8551 138.354 18.1605 138.215 18.5384C138.076 18.9162 138.006 19.3239 138.006 19.7614C138.006 20.1989 138.076 20.6051 138.215 20.9801C138.354 21.3551 138.569 21.6577 138.858 21.8878C139.148 22.1179 139.517 22.233 139.966 22.233Z" fill="white"/>
<path d="M68.3551 35.7957H71.1112V41.5757C69.4243 42.8092 67.4349 43.4876 65.3896 43.527C64.4191 43.5699 63.4507 43.4035 62.542 43.0376C61.6333 42.6718 60.8033 42.1141 60.1017 41.398C59.4002 40.682 58.8415 39.8221 58.4593 38.8703C58.077 37.9185 57.879 36.8942 57.8772 35.8589C57.8772 31.521 61.1807 28.2332 65.5689 28.2332C67.6391 28.2363 69.6426 29.0135 71.2307 30.4289L69.4395 32.8578C68.3862 31.8113 67.0085 31.2147 65.5689 31.1819C64.9875 31.1691 64.4094 31.2808 63.8694 31.5108C63.3293 31.7408 62.8382 32.0843 62.4251 32.5206C62.0121 32.957 61.6854 33.4774 61.4648 34.051C61.2442 34.6245 61.1342 35.239 61.141 35.8589C61.1342 36.4815 61.2449 37.0995 61.4665 37.6756C61.6881 38.2517 62.016 38.7743 62.431 39.2126C62.8459 39.6509 63.3393 39.9961 63.8817 40.2271C64.4242 40.4582 65.0048 40.5704 65.5888 40.5575C66.5559 40.5129 67.5012 40.2377 68.3551 39.7517V35.7957Z" fill="#FDFDFD"/>
<path d="M84.5344 37.5984C84.5344 41.1196 82.1962 43.5063 78.7235 43.5063C75.2508 43.5063 72.9023 41.1196 72.9023 37.5984C72.9023 34.0772 75.2408 31.7122 78.7235 31.7122C82.2062 31.7122 84.5344 34.056 84.5344 37.5984ZM76.007 37.5984C75.971 38.0017 76.0144 38.4088 76.1346 38.7931C76.2547 39.1775 76.4489 39.5303 76.7047 39.8299C76.9605 40.1295 77.2722 40.369 77.6198 40.5327C77.9675 40.6963 78.3434 40.7806 78.7235 40.7802C79.1027 40.7791 79.4775 40.6938 79.824 40.5296C80.1704 40.3653 80.481 40.1257 80.7357 39.8263C80.9904 39.5268 81.1836 39.1741 81.3032 38.7905C81.4227 38.407 81.466 38.0008 81.43 37.5984C81.466 37.196 81.4227 36.7904 81.3032 36.4068C81.1836 36.0232 80.9904 35.6699 80.7357 35.3705C80.481 35.0711 80.1704 34.832 79.824 34.6677C79.4775 34.5035 79.1027 34.4177 78.7235 34.4166C78.3397 34.4156 77.9601 34.5011 77.6094 34.6672C77.2587 34.8334 76.9449 35.0765 76.6884 35.3809C76.432 35.6852 76.2389 36.0438 76.1214 36.4332C76.004 36.8226 75.965 37.2343 76.007 37.6409V37.5984Z" fill="#FDFDFD"/>
<path d="M97.281 37.5984C97.281 41.1196 94.9428 43.5063 91.4801 43.5063C88.0173 43.5063 85.6589 41.1196 85.6589 37.5984C85.6589 34.0772 87.9974 31.7122 91.4801 31.7122C94.9627 31.7122 97.281 34.056 97.281 37.5984ZM88.7634 37.5984C88.7273 38.0017 88.7708 38.4088 88.8909 38.7931C89.011 39.1775 89.2053 39.5303 89.4611 39.8299C89.7169 40.1295 90.0288 40.369 90.3764 40.5327C90.7241 40.6963 91.1 40.7806 91.4801 40.7802C91.8589 40.7792 92.2333 40.694 92.5793 40.5296C92.9254 40.3652 93.2352 40.1254 93.4891 39.8258C93.7431 39.5261 93.9356 39.1731 94.0539 38.7895C94.1723 38.4059 94.2141 38.0002 94.1766 37.5984C94.2141 37.1966 94.1723 36.7909 94.0539 36.4073C93.9356 36.0237 93.7431 35.6707 93.4891 35.371C93.2352 35.0714 92.9254 34.8316 92.5793 34.6672C92.2333 34.5028 91.8589 34.4176 91.4801 34.4166C91.0963 34.4156 90.7167 34.5011 90.366 34.6672C90.0153 34.8334 89.7014 35.0765 89.445 35.3809C89.1886 35.6852 88.9952 36.0438 88.8778 36.4332C88.7603 36.8226 88.7213 37.2343 88.7634 37.6409V37.5984Z" fill="#FDFDFD"/>
<path d="M109.49 31.8182V42.2969C109.49 45.5848 107.172 47.674 103.709 47.674C102.029 47.6753 100.387 47.1437 98.9924 46.1468L100.147 43.8241C101.124 44.5825 102.301 44.9911 103.51 44.9909C105.281 44.9909 106.406 43.9301 106.406 42.4134V41.0985C106.034 41.6432 105.541 42.0811 104.971 42.3735C104.402 42.6659 103.773 42.8032 103.142 42.7738C100.346 42.7738 98.4055 40.5362 98.4055 37.1953C98.4055 33.8544 100.306 31.7121 103.062 31.7121C103.706 31.6751 104.348 31.8085 104.932 32.101C105.515 32.3934 106.022 32.8358 106.406 33.3879V31.8182H109.49ZM106.406 37.2802C106.443 36.9008 106.406 36.5169 106.295 36.1539C106.185 35.7908 106.005 35.4564 105.765 35.1725C105.526 34.8886 105.234 34.6613 104.907 34.5055C104.58 34.3496 104.226 34.2686 103.868 34.2678C103.51 34.2721 103.157 34.3555 102.831 34.5122C102.505 34.6689 102.212 34.8959 101.972 35.1787C101.732 35.4615 101.549 35.7943 101.436 36.1559C101.322 36.5176 101.279 36.9003 101.311 37.2802C101.278 37.659 101.319 38.0408 101.433 38.4014C101.546 38.7621 101.729 39.0938 101.97 39.3745C102.211 39.6552 102.504 39.8791 102.831 40.0317C103.158 40.1843 103.511 40.2623 103.868 40.2606C104.224 40.2609 104.576 40.1815 104.901 40.0281C105.226 39.8747 105.518 39.6506 105.757 39.3699C105.996 39.0891 106.177 38.7583 106.289 38.3983C106.401 38.0384 106.44 37.6575 106.406 37.2802Z" fill="#FDFDFD"/>
<path d="M115.53 27.4377V43.3468H112.426V27.4377H115.53Z" fill="#FDFDFD"/>
<path d="M128.605 38.6064H120.834C120.969 39.2822 121.324 39.8853 121.835 40.3102C122.347 40.735 122.982 40.9542 123.63 40.929C124.14 40.929 124.645 40.8203 125.115 40.609C125.585 40.3977 126.01 40.0879 126.366 39.6985L128.008 41.4697C127.416 42.1411 126.696 42.6701 125.896 43.0212C125.096 43.3724 124.236 43.5381 123.371 43.5065C119.908 43.5065 117.709 41.141 117.709 37.641C117.669 36.8493 117.786 36.0576 118.052 35.3173C118.319 34.577 118.729 33.9049 119.256 33.3453C119.783 32.7856 120.415 32.3506 121.11 32.0692C121.806 31.7878 122.549 31.6664 123.292 31.7124C127.093 31.7124 128.874 34.3957 128.605 38.6064ZM125.71 36.6545C125.724 36.3166 125.672 35.9797 125.556 35.6648C125.44 35.35 125.263 35.0646 125.037 34.8274C124.811 34.5903 124.54 34.4066 124.243 34.2883C123.946 34.1701 123.628 34.12 123.312 34.1412C122.669 34.1395 122.049 34.3981 121.578 34.8647C121.107 35.3313 120.82 35.9708 120.774 36.6545H125.71Z" fill="#FDFDFD"/>
<path d="M148.387 33.5574C148.387 37.0574 146.337 39.0831 142.745 39.0831H139.949V43.3789H136.765V28.3393H142.735C146.337 28.3393 148.387 30.2377 148.387 33.5574ZM145.402 33.6636C145.402 31.9984 144.407 31.1607 142.616 31.1607H139.979V36.2411H142.616C144.357 36.2411 145.372 35.3818 145.372 33.6636H145.402Z" fill="#FDFDFD"/>
<path d="M153.561 27.4377V43.3468H150.456V27.4377H153.561Z" fill="#FDFDFD"/>
<path d="M162.954 43.3789V42.021C162.533 42.5332 162.007 42.9355 161.417 43.1966C160.827 43.4578 160.189 43.5707 159.551 43.527C157.233 43.527 155.82 42.0211 155.82 39.9211C155.82 37.8211 157.292 36.4637 159.949 36.4425H162.934V36.2198C162.934 35.0001 162.168 34.2892 160.676 34.2892C159.54 34.3396 158.433 34.6857 157.452 35.297L156.457 33.0271C157.957 32.1501 159.641 31.6907 161.352 31.691C164.258 31.691 165.929 33.2391 165.949 35.8376V43.3789H162.954ZM162.954 39.4229V38.3623H160.526C159.342 38.3623 158.755 38.7441 158.755 39.6668C158.755 40.5895 159.402 41.1303 160.447 41.1303C160.981 41.1832 161.516 41.0437 161.967 40.7341C162.418 40.4246 162.759 39.963 162.934 39.4229H162.954Z" fill="#FDFDFD"/>
<path d="M169.76 47.6954C168.668 47.7338 167.602 47.3323 166.775 46.5711L168.079 44.1956C168.462 44.5797 168.966 44.7989 169.492 44.8108C169.804 44.815 170.11 44.7146 170.367 44.5244C170.624 44.3343 170.819 44.064 170.925 43.7502L171.223 43.1029L166.735 31.7863H169.93L172.775 39.7408L175.333 31.7863H178.437L173.681 44.6301C173.437 45.531 172.92 46.3205 172.211 46.8751C171.502 47.4296 170.64 47.7181 169.76 47.6954Z" fill="#FDFDFD"/>
</svg>
