<svg width="202" height="66" viewBox="0 0 202 66" fill="none" xmlns="http://www.w3.org/2000/svg">
<rect x="5" y="5" width="190" height="55" rx="27.5" fill="#8000FF"/>
<path d="M30.9799 16.4L46.88 32.1901L51.2299 27.8302L31.9701 16.6998C31.6693 16.5211 31.3293 16.4184 30.9799 16.4ZM29.65 17.1398C29.4993 17.4122 29.4202 17.7186 29.42 18.0299V48.6998C29.4211 48.9303 29.4686 49.1586 29.5599 49.3702L45.8199 33.2198L29.65 17.1398ZM52.5599 28.5802L47.91 33.2198L52.5599 37.8302L58.2499 34.5699C58.4268 34.5014 58.5886 34.3984 58.7257 34.2672C58.8628 34.136 58.9725 33.9791 59.0487 33.8053C59.1249 33.6315 59.1662 33.4447 59.1698 33.255C59.1734 33.0653 59.1394 32.8764 59.0699 32.6998C59.0003 32.5182 58.8943 32.3528 58.7584 32.2135C58.6226 32.0742 58.4598 31.9639 58.2799 31.8898C57.7899 31.6298 54.1899 29.5302 52.5599 28.5802ZM46.88 34.2501L30.88 50.15C31.1707 50.1386 31.4549 50.0599 31.7101 49.92L45.0299 42.2101L51.2999 38.61L46.88 34.2501Z" fill="#FDFDFD"/>
<path d="M71.87 22.6999C71.8705 23.3128 71.747 23.9199 71.5072 24.484C71.2674 25.0481 70.916 25.5576 70.4742 25.9826C70.0325 26.4075 69.5094 26.7389 68.9364 26.9567C68.3634 27.1745 67.7525 27.2744 67.14 27.2502H63.4999V18.1398H67.1801C67.7904 18.1196 68.3986 18.2232 68.9681 18.4435C69.5377 18.6639 70.0569 18.9968 70.4948 19.4225C70.9326 19.8483 71.2802 20.3579 71.5165 20.921C71.7528 21.4842 71.873 22.0891 71.87 22.6999ZM70.8099 22.6999C70.8154 22.2209 70.7246 21.746 70.5426 21.3029C70.3606 20.8598 70.0912 20.4576 69.7506 20.1208C69.41 19.7839 69.0053 19.519 68.5602 19.3419C68.1151 19.1648 67.6389 19.0792 67.16 19.09H64.5399V26.2799H67.1901C67.6642 26.2907 68.1355 26.2064 68.5763 26.0314C69.0171 25.8564 69.4181 25.5944 69.7557 25.2614C70.0934 24.9284 70.3608 24.5312 70.5419 24.0929C70.723 23.6546 70.8141 23.1843 70.8099 22.7101V22.6999Z" fill="#FDFDFD"/>
<path d="M74.7799 18.4402C74.7839 18.5293 74.7699 18.6183 74.7386 18.7019C74.7073 18.7854 74.6592 18.862 74.5975 18.9265C74.5358 18.991 74.4618 19.0423 74.3797 19.0774C74.2976 19.1124 74.2092 19.1302 74.1199 19.1301C74.0303 19.1301 73.9413 19.1123 73.8587 19.0774C73.7761 19.0425 73.7015 18.9913 73.639 18.927C73.5765 18.8626 73.5277 18.7865 73.4952 18.7029C73.4627 18.6192 73.4473 18.5298 73.45 18.4402C73.4459 18.3501 73.4603 18.2602 73.4923 18.176C73.5242 18.0917 73.573 18.0151 73.6358 17.9504C73.6986 17.8858 73.7737 17.8344 73.857 17.8C73.9403 17.7656 74.0299 17.7488 74.1199 17.7502C74.2096 17.7487 74.2987 17.7655 74.3814 17.8C74.4642 17.8345 74.5389 17.8861 74.6009 17.9509C74.6629 18.0157 74.7107 18.0923 74.7415 18.1765C74.7723 18.2607 74.7854 18.3506 74.7799 18.4402ZM74.63 20.4402V27.28H73.63V20.4402H74.63Z" fill="#FDFDFD"/>
<path d="M78.86 21.2101C78.09 21.2101 77.4999 21.4898 77.4999 22.1398C77.4999 23.6898 81.33 22.8903 81.33 25.3503C81.33 26.6903 80.1299 27.2902 78.8199 27.2902C77.849 27.2977 76.9107 26.9409 76.1901 26.2902L76.58 25.55C77.2105 26.1049 78.0201 26.4139 78.86 26.4201C79.66 26.4201 80.31 26.1101 80.33 25.4201C80.33 23.7501 76.5299 24.6001 76.5399 22.1701C76.5399 20.8701 77.67 20.3102 78.92 20.3102C79.6952 20.3068 80.4551 20.5253 81.11 20.9401L80.7201 21.7199C80.1574 21.3853 79.5146 21.2093 78.86 21.2101Z" fill="#FDFDFD"/>
<path d="M90.0099 23.8801C90.0435 24.3265 89.9834 24.7748 89.8334 25.1965C89.6833 25.6183 89.4467 26.004 89.1388 26.3289C88.8309 26.6538 88.4584 26.9109 88.0453 27.0833C87.6322 27.2557 87.1874 27.34 86.7399 27.3303C86.1978 27.3558 85.6595 27.2274 85.1871 26.9602C84.7147 26.6931 84.3275 26.2978 84.0699 25.8201V29.8201H83.0699V20.45H84.0699V21.8801C84.3251 21.4048 84.7091 21.011 85.1779 20.7439C85.6466 20.4768 86.1811 20.3476 86.7201 20.3704C87.1735 20.3618 87.6234 20.4484 88.0411 20.6248C88.4589 20.8011 88.835 21.063 89.1451 21.3938C89.4552 21.7246 89.6925 22.1169 89.8414 22.5452C89.9904 22.9735 90.0478 23.4283 90.0099 23.8801ZM89.0099 23.8801C89.0305 23.5469 88.9824 23.2129 88.8683 22.8992C88.7542 22.5855 88.5767 22.299 88.3468 22.0569C88.1169 21.8148 87.8395 21.6226 87.5321 21.4924C87.2247 21.3623 86.8938 21.2967 86.5599 21.3001C86.2253 21.2953 85.8932 21.36 85.5846 21.4895C85.276 21.6191 84.9977 21.8108 84.7667 22.053C84.5358 22.2952 84.3573 22.5823 84.2426 22.8967C84.1278 23.2111 84.0793 23.5461 84.1 23.8801C84.0777 24.2141 84.1251 24.549 84.2394 24.8635C84.3536 25.1781 84.5321 25.4655 84.7635 25.7073C84.995 25.9491 85.2743 26.1399 85.5836 26.2678C85.8929 26.3957 86.2253 26.4576 86.5599 26.45C86.8962 26.4512 87.229 26.3823 87.5372 26.2478C87.8454 26.1133 88.1223 25.9162 88.35 25.6687C88.5777 25.4213 88.7513 25.1291 88.8597 24.8108C88.9682 24.4925 89.009 24.1551 88.9799 23.8201L89.0099 23.8801Z" fill="#FDFDFD"/>
<path d="M98.0498 23.82C98.0697 24.281 97.9936 24.7411 97.8262 25.1711C97.6588 25.6011 97.4039 25.9913 97.0777 26.3176C96.7514 26.6438 96.3609 26.8988 95.9309 27.0661C95.501 27.2335 95.0408 27.3101 94.5799 27.2902C94.1181 27.3115 93.657 27.2363 93.2259 27.0695C92.7947 26.9028 92.4028 26.6479 92.0755 26.3215C91.7481 25.9951 91.4925 25.6042 91.3245 25.1735C91.1565 24.7429 91.08 24.2819 91.0999 23.82C91.0813 23.3594 91.1587 22.8999 91.3274 22.4709C91.4961 22.0419 91.7525 21.6529 92.0799 21.3283C92.4072 21.0038 92.7986 20.7511 93.229 20.5861C93.6595 20.4212 94.1195 20.3477 94.5799 20.3703C95.0395 20.3492 95.4985 20.4234 95.9278 20.5891C96.357 20.7547 96.747 21.0078 97.0733 21.3322C97.3996 21.6566 97.6549 22.0451 97.823 22.4734C97.9911 22.9016 98.0683 23.3603 98.0498 23.82ZM92.1199 23.82C92.0961 24.1548 92.1425 24.4911 92.2561 24.8068C92.3698 25.1226 92.548 25.4111 92.7796 25.654C93.0112 25.8969 93.2909 26.0885 93.6009 26.217C93.9109 26.3455 94.2444 26.4079 94.5799 26.4001C94.9149 26.4064 95.2476 26.3431 95.5569 26.2141C95.8662 26.085 96.1455 25.8931 96.3767 25.6506C96.608 25.4081 96.7863 25.12 96.9004 24.8049C97.0146 24.4898 97.0621 24.1544 97.0398 23.82C97.0606 23.4864 97.0121 23.1525 96.8973 22.8386C96.7824 22.5247 96.604 22.2377 96.3728 21.9963C96.1417 21.7549 95.8631 21.5637 95.5545 21.4353C95.2459 21.3068 94.914 21.244 94.5799 21.2502C94.2398 21.2417 93.9019 21.3052 93.5882 21.4367C93.2745 21.5682 92.9922 21.7645 92.7598 22.0129C92.5274 22.2613 92.3503 22.5563 92.24 22.8781C92.1298 23.1999 92.0888 23.5414 92.1199 23.8801V23.82Z" fill="#FDFDFD"/>
<path d="M106.11 23.0402V27.2501H105.11V23.2501C105.134 22.9888 105.101 22.7252 105.013 22.4782C104.924 22.2311 104.782 22.0065 104.597 21.8204C104.412 21.6344 104.188 21.4915 103.941 21.4015C103.695 21.3115 103.431 21.2768 103.17 21.2999C102.871 21.2933 102.574 21.3462 102.296 21.4557C102.018 21.5652 101.764 21.7291 101.55 21.9376C101.336 22.1462 101.165 22.3954 101.049 22.6705C100.932 22.9457 100.871 23.2413 100.87 23.5402V27.2101H99.87V20.3702H100.87V21.8702C101.104 21.3735 101.484 20.9599 101.959 20.6847C102.435 20.4095 102.983 20.2859 103.53 20.3302C103.887 20.3038 104.245 20.3567 104.579 20.4855C104.913 20.6143 105.214 20.8156 105.461 21.0748C105.708 21.334 105.894 21.6447 106.006 21.9845C106.118 22.3243 106.154 22.685 106.11 23.0402Z" fill="#FDFDFD"/>
<path d="M110.77 17.9601L109.15 19.2501H108.15L109.71 17.4899L110.77 17.9601ZM109.38 20.4098V27.2501H108.38V20.4098H109.38Z" fill="#FDFDFD"/>
<path d="M111.74 20.4098L113.93 26.2198L116.1 20.4098H117.1L114.41 27.2501H113.35L110.63 20.4098H111.74Z" fill="#FDFDFD"/>
<path d="M124.02 24.2101H118.42C118.469 24.8316 118.754 25.4104 119.217 25.8273C119.681 26.2442 120.287 26.4672 120.91 26.4499C121.305 26.4564 121.697 26.3815 122.061 26.2301C122.426 26.0788 122.756 25.8542 123.03 25.57L123.59 26.1598C123.235 26.5309 122.805 26.8236 122.33 27.0182C121.854 27.2129 121.343 27.3055 120.83 27.2902C120.373 27.309 119.917 27.232 119.491 27.0641C119.066 26.8962 118.68 26.641 118.359 26.3151C118.038 25.9893 117.788 25.6 117.627 25.172C117.465 24.744 117.395 24.287 117.42 23.8302C117.396 23.3747 117.467 22.9189 117.629 22.4924C117.79 22.0658 118.039 21.6776 118.359 21.3522C118.678 21.0268 119.062 20.7713 119.486 20.6022C119.91 20.4332 120.364 20.3544 120.82 20.3703C123.03 20.3703 124.12 21.8801 124.02 24.2101ZM123.11 23.4001C123.115 23.1026 123.058 22.8073 122.943 22.5329C122.828 22.2584 122.658 22.0105 122.443 21.8049C122.228 21.5992 121.973 21.4404 121.694 21.3381C121.414 21.2357 121.117 21.1922 120.82 21.2101C120.212 21.1856 119.619 21.4017 119.17 21.8117C118.72 22.2217 118.451 22.7926 118.42 23.4001H123.11Z" fill="#FDFDFD"/>
<path d="M126.84 17.59V27.2501H125.84V17.59H126.84Z" fill="#FDFDFD"/>
<path d="M139.56 23.0399V27.2499H138.56V23.2499C138.584 22.9886 138.551 22.7249 138.463 22.4779C138.374 22.2309 138.232 22.0063 138.047 21.8202C137.862 21.6341 137.638 21.4912 137.391 21.4012C137.145 21.3113 136.881 21.2765 136.62 21.2997C136.321 21.293 136.024 21.346 135.746 21.4554C135.468 21.5649 135.214 21.7288 135 21.9374C134.786 22.1459 134.616 22.3952 134.499 22.6703C134.382 22.9454 134.321 23.241 134.32 23.5399V27.2098H133.32V20.37H134.32V21.87C134.552 21.374 134.931 20.9606 135.404 20.6854C135.878 20.4102 136.424 20.2863 136.97 20.33C137.328 20.302 137.687 20.3537 138.022 20.4818C138.357 20.6099 138.66 20.8108 138.908 21.0702C139.156 21.3296 139.343 21.6412 139.456 21.9818C139.568 22.3224 139.604 22.6838 139.56 23.0399Z" fill="#FDFDFD"/>
<path d="M148.08 23.82C148.1 24.281 148.024 24.7411 147.856 25.1711C147.689 25.6011 147.434 25.9913 147.108 26.3176C146.781 26.6438 146.391 26.8988 145.961 27.0661C145.531 27.2335 145.071 27.3101 144.61 27.2902C144.148 27.3115 143.687 27.2363 143.256 27.0695C142.824 26.9028 142.433 26.6479 142.106 26.3215C141.778 25.9951 141.522 25.6042 141.354 25.1735C141.186 24.7429 141.11 24.2819 141.13 23.82C141.111 23.3594 141.189 22.8999 141.357 22.4709C141.526 22.0419 141.782 21.6529 142.11 21.3283C142.437 21.0038 142.828 20.7511 143.259 20.5861C143.689 20.4212 144.149 20.3477 144.61 20.3703C145.07 20.3492 145.529 20.4234 145.958 20.5891C146.387 20.7547 146.777 21.0078 147.103 21.3322C147.43 21.6566 147.685 22.0451 147.853 22.4734C148.021 22.9016 148.098 23.3603 148.08 23.82ZM142.15 23.82C142.126 24.1548 142.173 24.4911 142.286 24.8068C142.4 25.1226 142.578 25.4111 142.81 25.654C143.041 25.8969 143.321 26.0885 143.631 26.217C143.941 26.3455 144.274 26.4079 144.61 26.4001C144.945 26.4064 145.278 26.3431 145.587 26.2141C145.896 26.085 146.176 25.8931 146.407 25.6506C146.638 25.4081 146.816 25.12 146.93 24.8049C147.045 24.4898 147.092 24.1544 147.07 23.82C147.091 23.4864 147.042 23.1525 146.927 22.8386C146.812 22.5247 146.634 22.2377 146.403 21.9963C146.172 21.7549 145.893 21.5637 145.585 21.4353C145.276 21.3068 144.944 21.244 144.61 21.2502C144.27 21.2417 143.932 21.3052 143.618 21.4367C143.304 21.5682 143.022 21.7645 142.79 22.0129C142.557 22.2613 142.38 22.5563 142.27 22.8781C142.16 23.1999 142.119 23.5414 142.15 23.8801V23.82Z" fill="#FDFDFD"/>
<path d="M73.7201 40.3502H76.4899V45.7999C74.7947 46.9629 72.7953 47.6026 70.7399 47.6398C69.7645 47.6802 68.7912 47.5233 67.8781 47.1783C66.9649 46.8334 66.1307 46.3076 65.4257 45.6324C64.7206 44.9573 64.1592 44.1465 63.775 43.2491C63.3909 42.3517 63.1919 41.386 63.1901 40.4098C63.1901 36.3198 66.51 33.2198 70.92 33.2198C73.0005 33.2228 75.014 33.9556 76.61 35.2902L74.8099 37.5802C73.7514 36.5936 72.3668 36.0311 70.92 36.0001C70.3357 35.988 69.7548 36.0933 69.212 36.3102C68.6693 36.527 68.1758 36.8509 67.7606 37.2623C67.3455 37.6737 67.0173 38.1644 66.7955 38.7052C66.5738 39.246 66.4633 39.8254 66.4701 40.4098C66.4633 40.9968 66.5745 41.5795 66.7972 42.1227C67.02 42.6659 67.3495 43.1586 67.7665 43.5719C68.1835 43.9851 68.6793 44.3106 69.2245 44.5284C69.7697 44.7463 70.3531 44.8521 70.9401 44.84C71.9119 44.7978 72.862 44.5384 73.7201 44.0802V40.3502Z" fill="#FDFDFD"/>
<path d="M89.9799 42.0499C89.9799 45.3699 87.63 47.6202 84.14 47.6202C80.65 47.6202 78.2899 45.3699 78.2899 42.0499C78.2899 38.7299 80.64 36.5001 84.14 36.5001C87.64 36.5001 89.9799 38.7099 89.9799 42.0499ZM81.41 42.0499C81.3738 42.4301 81.4175 42.814 81.5382 43.1764C81.6589 43.5387 81.8541 43.8714 82.1112 44.1539C82.3683 44.4364 82.6815 44.6622 83.0309 44.8165C83.3803 44.9708 83.7581 45.0502 84.14 45.0499C84.5211 45.0489 84.8978 44.9685 85.246 44.8136C85.5942 44.6587 85.9062 44.4328 86.1622 44.1505C86.4182 43.8682 86.6124 43.5356 86.7325 43.1739C86.8527 42.8123 86.8961 42.4293 86.86 42.0499C86.8961 41.6705 86.8527 41.2881 86.7325 40.9264C86.6124 40.5647 86.4182 40.2317 86.1622 39.9493C85.9062 39.667 85.5942 39.4416 85.246 39.2867C84.8978 39.1318 84.5211 39.051 84.14 39.0499C83.7543 39.049 83.3728 39.1296 83.0204 39.2862C82.668 39.4429 82.3525 39.6721 82.0948 39.9591C81.8372 40.2461 81.643 40.5841 81.525 40.9513C81.407 41.3185 81.3678 41.7066 81.41 42.09V42.0499Z" fill="#FDFDFD"/>
<path d="M102.79 42.0499C102.79 45.3699 100.44 47.6202 96.9601 47.6202C93.4801 47.6202 91.11 45.3699 91.11 42.0499C91.11 38.7299 93.4601 36.5001 96.9601 36.5001C100.46 36.5001 102.79 38.7099 102.79 42.0499ZM94.2299 42.0499C94.1936 42.4301 94.2373 42.814 94.358 43.1764C94.4788 43.5387 94.674 43.8714 94.931 44.1539C95.1881 44.4364 95.5016 44.6622 95.851 44.8165C96.2004 44.9708 96.5781 45.0502 96.9601 45.0499C97.3408 45.049 97.7171 44.9686 98.0648 44.8136C98.4126 44.6586 98.7239 44.4325 98.9791 44.15C99.2343 43.8675 99.4278 43.5346 99.5468 43.173C99.6657 42.8113 99.7077 42.4288 99.67 42.0499C99.7077 41.6711 99.6657 41.2885 99.5468 40.9269C99.4278 40.5652 99.2343 40.2323 98.9791 39.9498C98.7239 39.6673 98.4126 39.4412 98.0648 39.2862C97.7171 39.1313 97.3408 39.0508 96.9601 39.0499C96.5744 39.049 96.1929 39.1296 95.8405 39.2862C95.488 39.4429 95.1726 39.6721 94.9149 39.9591C94.6572 40.2461 94.4629 40.5841 94.3448 40.9513C94.2268 41.3185 94.1876 41.7066 94.2299 42.09V42.0499Z" fill="#FDFDFD"/>
<path d="M115.06 36.6V46.4799C115.06 49.5799 112.73 51.5497 109.25 51.5497C107.562 51.551 105.912 51.0498 104.51 50.1098L105.67 47.9199C106.652 48.6349 107.835 49.0202 109.05 49.02C110.83 49.02 111.96 48.0198 111.96 46.5898V45.35C111.586 45.8636 111.091 46.2765 110.518 46.5522C109.946 46.8279 109.315 46.9573 108.68 46.9296C105.87 46.9296 103.92 44.8199 103.92 41.6699C103.92 38.5199 105.83 36.4999 108.6 36.4999C109.247 36.4651 109.893 36.5909 110.479 36.8666C111.065 37.1424 111.574 37.5595 111.96 38.08V36.6H115.06ZM111.96 41.7499C111.998 41.3921 111.96 41.0302 111.849 40.6879C111.738 40.3456 111.557 40.0303 111.317 39.7626C111.076 39.4949 110.782 39.2807 110.454 39.1337C110.125 38.9868 109.77 38.9104 109.41 38.9096C109.05 38.9137 108.695 38.9923 108.368 39.1401C108.04 39.2878 107.746 39.5018 107.505 39.7685C107.263 40.0352 107.08 40.3489 106.965 40.6899C106.851 41.0309 106.808 41.3917 106.84 41.7499C106.806 42.1071 106.848 42.467 106.962 42.8071C107.076 43.1471 107.26 43.4599 107.502 43.7245C107.744 43.9892 108.039 44.2003 108.368 44.3442C108.696 44.4881 109.051 44.5616 109.41 44.56C109.767 44.5603 110.121 44.4854 110.448 44.3408C110.775 44.1961 111.068 43.9849 111.308 43.7202C111.548 43.4554 111.73 43.1435 111.843 42.8041C111.955 42.4648 111.995 42.1057 111.96 41.7499Z" fill="#FDFDFD"/>
<path d="M121.13 32.4698V47.4698H118.01V32.4698H121.13Z" fill="#FDFDFD"/>
<path d="M134.27 43.0003H126.46C126.596 43.6375 126.952 44.2062 127.466 44.6067C127.98 45.0073 128.619 45.214 129.27 45.1902C129.783 45.1902 130.29 45.0877 130.762 44.8885C131.235 44.6892 131.662 44.3972 132.02 44.0301L133.67 45.7C133.075 46.333 132.351 46.8318 131.547 47.1629C130.744 47.494 129.879 47.6502 129.01 47.6204C125.53 47.6204 123.32 45.3901 123.32 42.0901C123.279 41.3436 123.397 40.5972 123.664 39.8992C123.932 39.2012 124.345 38.5675 124.874 38.0398C125.404 37.5121 126.039 37.102 126.738 36.8367C127.437 36.5714 128.184 36.4569 128.93 36.5003C132.75 36.5003 134.54 39.0303 134.27 43.0003ZM131.36 41.1599C131.375 40.8414 131.322 40.5237 131.206 40.2268C131.089 39.93 130.911 39.6609 130.684 39.4373C130.457 39.2137 130.185 39.0405 129.886 38.929C129.587 38.8175 129.268 38.7703 128.95 38.7903C128.304 38.7887 127.681 39.0325 127.208 39.4724C126.734 39.9124 126.446 40.5153 126.4 41.1599H131.36Z" fill="#FDFDFD"/>
<path d="M154.15 38.2399C154.15 41.5399 152.09 43.4498 148.48 43.4498H145.67V47.5001H142.47V33.3199H148.47C152.09 33.3199 154.15 35.1099 154.15 38.2399ZM151.15 38.34C151.15 36.77 150.15 35.9801 148.35 35.9801H145.7V40.7701H148.35C150.1 40.7701 151.12 39.96 151.12 38.34H151.15Z" fill="#FDFDFD"/>
<path d="M159.35 32.4698V47.4698H156.23V32.4698H159.35Z" fill="#FDFDFD"/>
<path d="M168.79 47.5001V46.2198C168.367 46.7027 167.838 47.082 167.245 47.3282C166.652 47.5745 166.011 47.6809 165.37 47.6398C163.04 47.6398 161.62 46.2199 161.62 44.2399C161.62 42.2599 163.1 40.9801 165.77 40.9601H168.77V40.7501C168.77 39.6001 168 38.9298 166.5 38.9298C165.359 38.9774 164.246 39.3037 163.26 39.88L162.26 37.7399C163.768 36.913 165.46 36.4798 167.18 36.4801C170.1 36.4801 171.78 37.9398 171.8 40.3898V47.5001H168.79ZM168.79 43.7701V42.7701H166.35C165.16 42.7701 164.57 43.1301 164.57 44.0001C164.57 44.8701 165.22 45.38 166.27 45.38C166.807 45.4299 167.345 45.2983 167.798 45.0065C168.251 44.7146 168.593 44.2794 168.77 43.7701H168.79Z" fill="#FDFDFD"/>
<path d="M175.63 51.5699C174.532 51.6061 173.461 51.2276 172.63 50.5099L173.94 48.2701C174.325 48.6323 174.831 48.839 175.36 48.8502C175.674 48.8541 175.982 48.7594 176.24 48.5802C176.498 48.4009 176.694 48.146 176.8 47.8502L177.1 47.2399L172.59 36.5699H175.8L178.66 44.0699L181.23 36.5699H184.35L179.57 48.6798C179.325 49.5292 178.805 50.2736 178.093 50.7965C177.38 51.3194 176.514 51.5913 175.63 51.5699Z" fill="#FDFDFD"/>
</svg>
