<svg width="59" height="60" viewBox="0 0 59 60" fill="none" xmlns="http://www.w3.org/2000/svg">
<path d="M0.111084 29.9999C0.111084 46.1696 13.2192 59.2777 29.3889 59.2777C45.5585 59.2777 58.6666 46.1696 58.6666 29.9999C58.6666 13.8303 45.5585 0.722168 29.3889 0.722168C13.2192 0.722168 0.111084 13.8303 0.111084 29.9999Z" fill="#FDFDFD"/>
<path d="M29.3889 17.5569C33.4146 17.5569 33.9636 17.5569 35.6104 17.5569C37.0743 17.5569 37.8063 17.9229 38.3552 18.1059C39.0872 18.4719 39.6361 18.6548 40.1851 19.2038C40.734 19.7528 41.1 20.3017 41.283 21.0337C41.466 21.5826 41.649 22.3146 41.832 23.7785C41.832 25.4253 41.832 25.7913 41.832 30C41.832 34.2087 41.832 34.5746 41.832 36.2215C41.832 37.6854 41.466 38.4173 41.283 38.9663C40.917 39.6983 40.734 40.2472 40.1851 40.7962C39.6361 41.3451 39.0872 41.7111 38.3552 41.8941C37.8063 42.0771 37.0743 42.2601 35.6104 42.443C33.9636 42.443 33.5976 42.443 29.3889 42.443C25.1802 42.443 24.8142 42.443 23.1674 42.443C21.7035 42.443 20.9715 42.0771 20.4226 41.8941C19.6906 41.5281 19.1417 41.3451 18.5927 40.7962C18.0438 40.2472 17.6778 39.6983 17.4948 38.9663C17.3118 38.4173 17.1288 37.6854 16.9458 36.2215C16.9458 34.5746 16.9458 34.2087 16.9458 30C16.9458 25.7913 16.9458 25.4253 16.9458 23.7785C16.9458 22.3146 17.3118 21.5826 17.4948 21.0337C17.8608 20.3017 18.0438 19.7528 18.5927 19.2038C19.1417 18.6548 19.6906 18.2889 20.4226 18.1059C20.9715 17.9229 21.7035 17.7399 23.1674 17.5569C24.8142 17.5569 25.3632 17.5569 29.3889 17.5569ZM29.3889 14.8121C25.1802 14.8121 24.8142 14.8121 23.1674 14.8121C21.5205 14.8121 20.4226 15.1781 19.5076 15.5441C18.5927 15.9101 17.6778 16.459 16.7629 17.3739C15.8479 18.2889 15.482 19.0208 14.933 20.1187C14.567 21.0337 14.384 22.1316 14.201 23.7785C14.201 25.4253 14.201 25.9743 14.201 30C14.201 34.2087 14.201 34.5746 14.201 36.2215C14.201 37.8684 14.567 38.9663 14.933 39.8812C15.299 40.7962 15.8479 41.7111 16.7629 42.626C17.6778 43.541 18.4097 43.9069 19.5076 44.4559C20.4226 44.8219 21.5205 45.0048 23.1674 45.1878C24.8142 45.1878 25.3632 45.1878 29.3889 45.1878C33.4146 45.1878 33.9636 45.1878 35.6104 45.1878C37.2573 45.1878 38.3552 44.8219 39.2701 44.4559C40.1851 44.0899 41.1 43.541 42.0149 42.626C42.9299 41.7111 43.2958 40.9792 43.8448 39.8812C44.2108 38.9663 44.3938 37.8684 44.5767 36.2215C44.5767 34.5746 44.5767 34.0257 44.5767 30C44.5767 25.9743 44.5767 25.4253 44.5767 23.7785C44.5767 22.1316 44.2108 21.0337 43.8448 20.1187C43.4788 19.2038 42.9299 18.2889 42.0149 17.3739C41.1 16.459 40.3681 16.093 39.2701 15.5441C38.3552 15.1781 37.2573 14.9951 35.6104 14.8121C33.9636 14.8121 33.5976 14.8121 29.3889 14.8121Z" fill="#8000FF"/>
<path d="M29.3889 22.1316C24.9972 22.1316 21.5205 25.6083 21.5205 30C21.5205 34.3917 24.9972 37.8684 29.3889 37.8684C33.7806 37.8684 37.2573 34.3917 37.2573 30C37.2573 25.6083 33.7806 22.1316 29.3889 22.1316ZM29.3889 35.1236C26.6441 35.1236 24.2653 32.9278 24.2653 30C24.2653 27.2552 26.4611 24.8764 29.3889 24.8764C32.1337 24.8764 34.5125 27.0722 34.5125 30C34.5125 32.7448 32.1337 35.1236 29.3889 35.1236Z" fill="#8000FF"/>
<path d="M37.4403 23.7785C38.4509 23.7785 39.2701 22.9592 39.2701 21.9486C39.2701 20.938 38.4509 20.1187 37.4403 20.1187C36.4297 20.1187 35.6104 20.938 35.6104 21.9486C35.6104 22.9592 36.4297 23.7785 37.4403 23.7785Z" fill="#8000FF"/>
</svg>
