<svg width="59" height="60" viewBox="0 0 59 60" fill="none" xmlns="http://www.w3.org/2000/svg">
<path d="M0.222168 29.9999C0.222168 46.1696 13.3303 59.2777 29.4999 59.2777C45.6696 59.2777 58.7777 46.1696 58.7777 29.9999C58.7777 13.8303 45.6696 0.722168 29.4999 0.722168C13.3303 0.722168 0.222168 13.8303 0.222168 29.9999Z" fill="#FDFDFD"/>
<path d="M21.4486 44.6389H15.2271V25.0593H21.4486V44.6389ZM18.3378 22.3146C16.325 22.3146 14.8611 20.8507 14.8611 18.8378C14.8611 16.825 16.508 15.3611 18.3378 15.3611C20.3507 15.3611 21.8146 16.825 21.8146 18.8378C21.8146 20.8507 20.3507 22.3146 18.3378 22.3146ZM44.1389 44.6389H37.9173V34.0257C37.9173 30.9149 36.6364 30 34.8066 30C32.9767 30 31.1468 31.4639 31.1468 34.2087V44.6389H24.9253V25.0593H30.7809V27.8041C31.3298 26.5232 33.5257 24.5104 36.6364 24.5104C40.1132 24.5104 43.7729 26.5232 43.7729 32.5618V44.6389H44.1389Z" fill="#8000FF"/>
</svg>
