<svg width="176" height="50" viewBox="0 0 176 50" fill="none" xmlns="http://www.w3.org/2000/svg">
<g clip-path="url(#clip0_1_124)">
<path d="M41.2602 50H34.6426C33.2888 49.9994 31.9906 49.4689 31.0333 48.5253C30.076 47.5816 29.5379 46.3018 29.5373 44.9673V5.03272C29.5379 3.69815 30.076 2.41842 31.0333 1.47474C31.9906 0.531058 33.2888 0.000619145 34.6426 0H41.2602C42.614 0.000619145 43.9122 0.531058 44.8695 1.47474C45.8268 2.41842 46.3649 3.69815 46.3655 5.03272V44.9673C46.3649 46.3018 45.8268 47.5816 44.8695 48.5253C43.9122 49.4689 42.614 49.9994 41.2602 50ZM17.5939 29.2617L2.91305 7.8528C2.3936 7.09593 2.093 6.21393 2.04351 5.30142C1.99401 4.3889 2.19749 3.48033 2.63211 2.67317C3.06673 1.86601 3.71609 1.19073 4.51051 0.719787C5.30494 0.248847 6.21444 2.50876e-05 7.14145 0H12.2681C13.1326 9.10041e-06 13.9829 0.216314 14.7395 0.628634C15.496 1.04095 16.134 1.63579 16.5937 2.35747L26.1479 17.3692C26.6594 18.1703 26.9305 19.0978 26.9301 20.0444V26.4416C26.9301 31.4042 20.4145 33.3738 17.5939 29.2617ZM0.585539 42.6402L6.67927 31.1191C7.08944 30.3449 7.69697 29.6893 8.4421 29.2166C9.18724 28.744 10.0443 28.4707 10.9291 28.4235C11.8139 28.3764 12.6959 28.557 13.4883 28.9477C14.2808 29.3384 14.9565 29.9257 15.4489 30.6519L19.0516 35.9813C19.5453 36.7114 19.8367 37.5561 19.897 38.4316C19.9572 39.307 19.7843 40.1827 19.3953 40.972L16.3401 47.1752C15.9204 48.0234 15.267 48.7381 14.4548 49.2376C13.6425 49.7371 12.7041 50.0013 11.7467 50H5.12443C4.24579 50.002 3.38148 49.7805 2.61512 49.3569C1.84876 48.9332 1.20629 48.3218 0.749856 47.5817C0.293424 46.8416 0.0384857 45.9979 0.00969921 45.1322C-0.0190872 44.2665 0.179256 43.4082 0.585539 42.6402Z" fill="#8000FF"/>
<path d="M75.7249 27.5818C75.7495 27.6277 75.7602 27.6796 75.7557 27.7313V34.9743C75.7544 35.381 75.59 35.7707 75.2982 36.0584C75.0064 36.346 74.6111 36.5081 74.1985 36.5093C73.996 36.5078 73.7958 36.4668 73.6094 36.3887C73.423 36.3107 73.2542 36.197 73.1125 36.0543C72.9709 35.9117 72.8593 35.7428 72.7841 35.5574C72.7089 35.3721 72.6716 35.1739 72.6744 34.9743V27.5701C72.6834 26.8186 72.4138 26.0897 71.9163 25.5201C71.4189 24.9506 70.7277 24.5796 69.9724 24.4766C69.5415 24.4239 69.1041 24.4616 68.689 24.5872C68.2739 24.7128 67.8904 24.9235 67.5636 25.2054C67.2369 25.4874 66.9743 25.8342 66.793 26.2232C66.6118 26.6122 66.516 27.0346 66.512 27.4626V35.0467C66.5139 35.2308 66.4789 35.4135 66.4092 35.5843C66.3395 35.755 66.2363 35.9106 66.1055 36.0421C65.9748 36.1736 65.8191 36.2784 65.6472 36.3506C65.4754 36.4227 65.2909 36.4608 65.1041 36.4626C64.7235 36.4614 64.3589 36.3118 64.0898 36.0466C63.8207 35.7813 63.669 35.4219 63.6678 35.0467V27.5537C63.6678 26.0701 62.4542 24.6378 60.9587 24.4743C60.5277 24.4226 60.0905 24.4612 59.6757 24.5877C59.261 24.7142 58.878 24.9257 58.5519 25.2083C58.2259 25.4909 57.9641 25.8382 57.7837 26.2275C57.6034 26.6168 57.5085 27.0393 57.5053 27.4673V34.9766C57.5093 35.2208 57.4533 35.4623 57.342 35.6805C57.2306 35.8986 57.0673 36.087 56.8661 36.2293C56.6648 36.3717 56.4315 36.4639 56.1862 36.498C55.9409 36.5322 55.6908 36.5072 55.4575 36.4252C55.1518 36.3176 54.888 36.1186 54.7027 35.8559C54.5174 35.5933 54.42 35.2802 54.4241 34.9603V27.4626C54.4328 25.8762 55.0786 24.3577 56.2202 23.2394C57.3617 22.1212 58.9061 21.4941 60.5154 21.4953C61.384 21.4919 62.243 21.6747 63.0328 22.0309C63.8227 22.3871 64.5246 22.9083 65.0899 23.5584C65.6552 22.9083 66.3571 22.3871 67.1469 22.0309C67.9368 21.6747 68.7957 21.4919 69.6643 21.4953C71.2749 21.4941 72.8203 22.1221 73.9621 23.2419C75.1038 24.3617 75.7488 25.882 75.7557 27.4696C75.7557 27.5233 75.7557 27.5537 75.7249 27.5818Z" fill="#FDFDFD"/>
<path d="M77.4978 28.9299C77.4978 27.4461 77.9442 25.9956 78.7804 24.7618C79.6167 23.5281 80.8053 22.5665 82.196 21.9986C83.5866 21.4308 85.1169 21.2822 86.5932 21.5717C88.0695 21.8612 89.4256 22.5757 90.49 23.6249C91.5544 24.6741 92.2792 26.011 92.5728 27.4663C92.8665 28.9216 92.7158 30.43 92.1398 31.8009C91.5637 33.1718 90.5883 34.3435 89.3367 35.1678C88.0851 35.9922 86.6137 36.4322 85.1084 36.4322C83.0904 36.431 81.1553 35.6402 79.7283 34.2335C78.3013 32.8268 77.4991 30.9192 77.4978 28.9299ZM80.5008 28.9299C80.5008 29.8288 80.7713 30.7075 81.2779 31.4549C81.7846 32.2022 82.5047 32.7847 83.3472 33.1286C84.1897 33.4725 85.1167 33.5623 86.0111 33.3868C86.9054 33.2112 87.7268 32.7782 88.3714 32.1424C89.016 31.5067 89.4549 30.6967 89.6325 29.815C89.8101 28.9334 89.7185 28.0195 89.3692 27.1892C89.0199 26.3589 88.4287 25.6493 87.6703 25.1502C86.9118 24.6512 86.0203 24.385 85.1084 24.3855C83.8865 24.3886 82.7155 24.8683 81.8513 25.7198C80.9871 26.5713 80.4998 27.7254 80.4961 28.9299H80.5008ZM86.3812 18.4579L85.0776 17.1729L83.8143 18.4579C83.5315 18.7352 83.1484 18.8904 82.7495 18.8893C82.3505 18.8882 81.9684 18.7309 81.6871 18.4521C81.4058 18.1732 81.2484 17.7956 81.2495 17.4024C81.2506 17.0091 81.4101 16.6324 81.693 16.3551C83.9044 14.1425 83.966 14.0841 84.0276 14.0187C84.3071 13.7375 84.6878 13.5763 85.0871 13.5701C85.2903 13.57 85.4914 13.6096 85.679 13.6866C85.8665 13.7636 86.0367 13.8765 86.1798 14.0187L88.5144 16.3551C88.7973 16.634 88.9562 17.0122 88.9562 17.4065C88.9562 17.8009 88.7973 18.1791 88.5144 18.4579C88.2315 18.7368 87.8479 18.8934 87.4478 18.8934C87.0478 18.8934 86.6641 18.7368 86.3812 18.4579Z" fill="#FDFDFD"/>
<path d="M147.788 13.0841C147.966 13.1332 148.146 13.1706 148.316 13.2313C148.72 13.3864 149.067 13.6575 149.313 14.0096C149.559 14.3617 149.691 14.7783 149.693 15.2056C149.693 17.2695 149.693 19.3333 149.693 21.3972V21.7407C150.259 21.4375 150.854 21.1932 151.471 21.0117C155.875 19.778 160.715 22.0701 161.971 26.8201C162.266 27.9275 162.327 29.0832 162.148 30.2147C161.969 31.3461 161.555 32.429 160.932 33.3954C160.309 34.3619 159.491 35.1911 158.527 35.8311C157.564 36.471 156.477 36.9079 155.334 37.1145C150.786 37.9346 146.314 34.8364 145.574 30.3621C145.496 29.8925 145.457 29.4174 145.458 28.9416C145.458 24.4026 145.458 19.8629 145.458 15.3224C145.458 14.1542 146.062 13.4065 147.207 13.1425C147.245 13.1425 147.281 13.1425 147.288 13.0841H147.788ZM149.698 28.8598C149.691 29.3819 149.79 29.9002 149.989 30.3841C150.188 30.868 150.483 31.3079 150.857 31.6779C151.231 32.0479 151.676 32.3405 152.166 32.5387C152.656 32.7368 153.181 32.8365 153.711 32.8318C154.505 32.8327 155.282 32.6015 155.943 32.1674C156.604 31.7333 157.12 31.1158 157.425 30.3929C157.73 29.6701 157.811 28.8742 157.657 28.106C157.504 27.3378 157.123 26.6317 156.562 26.0769C156.002 25.5221 155.287 25.1436 154.508 24.9891C153.73 24.8346 152.922 24.9111 152.187 25.2089C151.453 25.5067 150.824 26.0125 150.381 26.6623C149.938 27.3121 149.7 28.0768 149.698 28.8598Z" fill="#FDFDFD"/>
<path d="M93.9847 14.9976C94.0748 14.9696 94.0393 14.8878 94.0535 14.8318C94.1578 14.3074 94.4649 13.8435 94.9099 13.5383C95.3549 13.2331 95.9028 13.1104 96.4379 13.1962C96.9583 13.2674 97.4338 13.5254 97.7732 13.9207C98.1126 14.3161 98.2921 14.8211 98.2771 15.3388C98.2771 18.4665 98.2771 21.595 98.2771 24.7243V25.0841C98.5995 24.8785 98.8839 24.7009 99.1636 24.5187L104.544 21.028C104.774 20.8413 105.042 20.7044 105.329 20.6259C105.617 20.5475 105.918 20.5294 106.213 20.5727C106.508 20.616 106.79 20.7198 107.042 20.8775C107.294 21.0351 107.509 21.243 107.674 21.4878C107.84 21.7325 107.951 22.0087 108.001 22.2986C108.051 22.5884 108.039 22.8853 107.966 23.1703C107.892 23.4552 107.759 23.7218 107.575 23.9529C107.39 24.1839 107.159 24.3743 106.895 24.5117C105.388 25.493 103.877 26.4696 102.363 27.4416C102.197 27.549 102.15 27.6075 102.302 27.785C103.98 29.7586 105.652 31.7383 107.317 33.7243C107.541 33.9704 107.703 34.2653 107.79 34.5849C107.877 34.9045 107.886 35.2397 107.817 35.5635C107.748 35.8872 107.602 36.1903 107.392 36.448C107.181 36.7057 106.912 36.9109 106.606 37.0467C106.188 37.2434 105.716 37.2964 105.264 37.1973C104.812 37.0982 104.406 36.8527 104.113 36.5C102.324 34.38 100.535 32.2601 98.7464 30.1402C98.6801 30.0607 98.654 29.8902 98.4881 29.9463C98.3222 30.0023 98.2866 30.1542 98.2866 30.3294C98.2866 31.9073 98.2866 33.4852 98.2866 35.0631C98.3041 35.567 98.1374 36.0603 97.8167 36.4532C97.4961 36.846 97.0429 37.1122 96.5398 37.2033C96.019 37.3053 95.4782 37.2093 95.0263 36.9346C94.5743 36.6598 94.2445 36.2266 94.1033 35.722C94.0772 35.6308 94.1033 35.514 93.9942 35.4533V35.3411C94.1009 35.264 94.0464 35.1519 94.0464 35.0584C94.0464 28.4743 94.0464 21.8902 94.0464 15.3061C94.0464 15.222 94.1056 15.1168 93.9942 15.0537L93.9847 14.9976Z" fill="#FDFDFD"/>
<path d="M93.9847 15.0537C94.0961 15.1168 94.0369 15.222 94.0369 15.3061C94.0369 21.8902 94.0369 28.4743 94.0369 35.0584C94.0369 35.1519 94.0914 35.264 93.9847 35.3411V15.0537Z" fill="#FDFDFD"/>
<path d="M122.242 30.9603C122.242 29.6168 122.183 28.2687 122.256 26.9276C122.406 24.1425 124.65 21.6285 127.433 21.049C129.691 20.5818 131.699 21.0677 133.453 22.5771C133.571 22.6776 133.628 22.6542 133.726 22.5771C134.381 21.9943 135.147 21.5452 135.979 21.2557C136.811 20.9661 137.694 20.8419 138.575 20.8902C141.545 20.986 144.292 23.3107 144.83 26.1939C144.914 26.6432 144.956 27.0991 144.955 27.556C144.955 30.0327 144.955 32.5078 144.955 34.9813C144.947 35.4867 144.754 35.9721 144.412 36.3487C144.07 36.7253 143.602 36.9679 143.093 37.032C142.585 37.0961 142.07 36.9775 141.642 36.6979C141.215 36.4183 140.905 35.9963 140.767 35.5093C140.724 35.3279 140.704 35.1419 140.708 34.9556C140.708 32.5818 140.708 30.2103 140.708 27.8388C140.751 27.1045 140.5 26.3829 140.009 25.8294C139.672 25.4714 139.234 25.2213 138.752 25.1114C138.27 25.0015 137.765 25.037 137.303 25.2132C136.841 25.3895 136.444 25.6983 136.162 26.0998C135.881 26.5013 135.728 26.9769 135.724 27.465C135.724 28.9416 135.724 30.4159 135.724 31.9042V34.9579C135.733 35.4857 135.541 35.9978 135.185 36.3924C134.83 36.787 134.336 37.0353 133.804 37.088C133.271 37.1407 132.737 36.9939 132.309 36.6767C131.881 36.3596 131.59 35.8953 131.493 35.3762C131.473 35.2471 131.465 35.1165 131.469 34.986C131.469 32.4836 131.469 29.979 131.45 27.4766C131.424 26.884 131.189 26.319 130.786 25.8786C130.382 25.4382 129.836 25.1499 129.241 25.0631C128.642 25.0044 128.042 25.1593 127.548 25.4996C127.055 25.84 126.702 26.3433 126.553 26.9182C126.495 27.1474 126.468 27.383 126.47 27.6191C126.47 30.0677 126.47 32.5148 126.47 34.9603C126.497 35.2519 126.462 35.5458 126.367 35.8233C126.272 36.1008 126.12 36.3556 125.919 36.5716C125.718 36.7875 125.474 36.9597 125.202 37.0772C124.93 37.1948 124.636 37.2549 124.339 37.254C124.042 37.253 123.748 37.1908 123.477 37.0715C123.206 36.9522 122.963 36.7784 122.763 36.5612C122.564 36.3439 122.413 36.0881 122.32 35.81C122.227 35.5319 122.194 35.2377 122.223 34.9462V30.9953L122.242 30.9603Z" fill="#FDFDFD"/>
<path d="M108.227 26.9206C108.227 25.5841 108.227 24.25 108.227 22.9135C108.207 22.4892 108.322 22.0694 108.556 21.7128C108.791 21.3562 109.132 21.0809 109.533 20.9252C109.907 20.758 110.324 20.7057 110.728 20.7753C111.133 20.8449 111.507 21.0332 111.801 21.3154C112.034 21.5226 112.217 21.7785 112.336 22.0644C112.455 22.3502 112.508 22.6587 112.491 22.9673C112.491 25.4237 112.491 27.8793 112.491 30.3341C112.481 30.9125 112.674 31.4765 113.037 31.9313C113.399 32.3862 113.91 32.7041 114.482 32.8318C114.84 32.9047 115.211 32.8988 115.566 32.8144C115.922 32.73 116.255 32.5693 116.54 32.3437C116.825 32.1181 117.057 31.8331 117.218 31.5092C117.379 31.1852 117.465 30.8303 117.471 30.4696C117.471 27.9673 117.471 25.465 117.471 22.9626C117.47 22.607 117.561 22.257 117.734 21.9453C117.908 21.6336 118.159 21.3705 118.464 21.1805C118.769 20.9905 119.118 20.8799 119.478 20.859C119.838 20.838 120.198 20.9074 120.524 21.0608C120.879 21.2144 121.182 21.4667 121.395 21.7869C121.608 22.1072 121.722 22.4816 121.723 22.8645C121.749 25.4977 121.785 28.1309 121.711 30.7617C121.619 34.0911 118.786 36.8528 115.402 37.0327C113.746 37.1404 112.109 36.6417 110.803 35.6323C109.498 34.6228 108.617 33.1737 108.329 31.5631C108.258 31.1706 108.224 30.7725 108.227 30.3738C108.227 29.2173 108.227 28.0678 108.227 26.9206Z" fill="#FDFDFD"/>
<path d="M162.504 26.8037V22.9089C162.475 22.6175 162.508 22.3233 162.601 22.0452C162.694 21.7671 162.845 21.5112 163.045 21.294C163.244 21.0767 163.487 20.9029 163.758 20.7836C164.029 20.6643 164.323 20.6022 164.62 20.6012C164.917 20.6002 165.211 20.6604 165.483 20.7779C165.755 20.8954 165.999 21.0676 166.2 21.2836C166.401 21.4995 166.553 21.7544 166.648 22.0318C166.743 22.3093 166.778 22.6033 166.752 22.8949C166.752 25.303 166.752 27.7126 166.752 30.1239C166.725 30.7142 166.886 31.298 167.211 31.7944C167.497 32.2282 167.918 32.5593 168.41 32.7383C168.903 32.9172 169.441 32.9344 169.944 32.7874C170.462 32.6392 170.917 32.3288 171.241 31.9031C171.564 31.4773 171.738 30.9594 171.736 30.4276C171.736 28.6425 171.736 26.8575 171.736 25.0748C171.736 24.3738 171.736 23.6729 171.736 22.972C171.714 22.6834 171.753 22.3936 171.85 22.1205C171.947 21.8474 172.1 21.597 172.3 21.3849C172.499 21.1728 172.741 21.0036 173.01 20.888C173.279 20.7723 173.57 20.7126 173.863 20.7126C174.157 20.7126 174.447 20.7723 174.716 20.888C174.985 21.0036 175.227 21.1728 175.427 21.3849C175.626 21.597 175.78 21.8474 175.877 22.1205C175.974 22.3936 176.012 22.6834 175.99 22.972C175.99 25.4766 175.99 27.9798 175.99 30.4813C175.973 32.1173 175.344 33.6895 174.224 34.8973C173.105 36.105 171.573 36.8637 169.921 37.0282C168.27 37.1927 166.615 36.7516 165.273 35.789C163.931 34.8265 162.996 33.4102 162.646 31.8108C162.547 31.3831 162.499 30.9456 162.502 30.507C162.504 29.271 162.504 28.0374 162.504 26.8037Z" fill="#FDFDFD"/>
</g>
<defs>
<clipPath id="clip0_1_124">
<rect width="176" height="50" fill="white"/>
</clipPath>
</defs>
</svg>
