<svg width="305" height="87" viewBox="0 0 305 87" fill="none" xmlns="http://www.w3.org/2000/svg">
<g clip-path="url(#clip0_1_134)">
<path d="M71.502 87H60.0341C57.688 86.9989 55.4383 86.076 53.7793 84.4339C52.1203 82.7919 51.1879 80.5652 51.1868 78.2431V8.75693C51.1879 6.43478 52.1203 4.20806 53.7793 2.56605C55.4383 0.924042 57.688 0.00107731 60.0341 0H71.502C73.8482 0.00107731 76.0979 0.924042 77.7569 2.56605C79.4158 4.20806 80.3483 6.43478 80.3494 8.75693V78.2431C80.3483 80.5652 79.4158 82.7919 77.7569 84.4339C76.0979 86.076 73.8482 86.9989 71.502 87ZM30.4895 50.9153L5.04821 13.6639C4.14803 12.3469 3.6271 10.8122 3.54133 9.22446C3.45556 7.63669 3.80819 6.05577 4.56136 4.65131C5.31454 3.24686 6.43984 2.07186 7.81654 1.25243C9.19324 0.432994 10.7694 4.36524e-05 12.3758 0H21.2602C22.7583 1.58347e-05 24.2318 0.376386 25.5429 1.09382C26.8539 1.81126 27.9595 2.84627 28.7562 4.10199L45.3132 30.2223C46.1995 31.6164 46.6694 33.2301 46.6686 34.8773V46.0084C46.6686 54.6433 35.3773 58.0705 30.4895 50.9153ZM1.01474 74.1939L11.5749 54.1473C12.2857 52.8002 13.3385 51.6593 14.6298 50.837C15.9211 50.0146 17.4064 49.539 18.9397 49.4569C20.4729 49.3749 22.0014 49.6893 23.3747 50.3691C24.748 51.0489 25.9189 52.0708 26.7723 53.3342L33.0156 62.6075C33.8711 63.8779 34.3761 65.3477 34.4806 66.8709C34.585 68.3942 34.2853 69.918 33.6112 71.2912L28.3167 82.0849C27.5893 83.5608 26.4571 84.8043 25.0495 85.6734C23.6418 86.5426 22.0156 87.0023 20.3565 87H8.88043C7.35779 87.0036 5.85999 86.6181 4.53192 85.881C3.20385 85.1438 2.09047 84.0799 1.29949 82.7921C0.508518 81.5043 0.066721 80.0363 0.0168353 78.53C-0.0330503 77.0237 0.310669 75.5302 1.01474 74.1939Z" fill="#FDFDFD"/>
<path d="M131.228 47.9923C131.27 48.0721 131.289 48.1624 131.281 48.2524V60.8552C131.279 61.5629 130.994 62.2411 130.488 62.7415C129.983 63.242 129.298 63.5241 128.583 63.5262C128.232 63.5236 127.885 63.4523 127.562 63.3164C127.239 63.1805 126.946 62.9828 126.701 62.7345C126.455 62.4863 126.262 62.1924 126.131 61.8699C126.001 61.5474 125.937 61.2025 125.941 60.8552V47.9719C125.957 46.6643 125.49 45.396 124.628 44.405C123.766 43.414 122.568 42.7684 121.259 42.5893C120.512 42.4976 119.754 42.5632 119.035 42.7817C118.316 43.0002 117.651 43.3668 117.085 43.8574C116.518 44.348 116.063 44.9515 115.749 45.6283C115.435 46.3052 115.269 47.0401 115.262 47.7849V60.9813C115.265 61.3016 115.205 61.6194 115.084 61.9166C114.963 62.2137 114.784 62.4844 114.558 62.7132C114.331 62.942 114.061 63.1244 113.764 63.2499C113.466 63.3755 113.146 63.4417 112.822 63.4449C112.163 63.4428 111.531 63.1825 111.065 62.721C110.598 62.2594 110.335 61.634 110.333 60.9813V47.9435C110.333 45.3619 108.23 42.8698 105.639 42.5852C104.892 42.4953 104.134 42.5625 103.415 42.7826C102.697 43.0027 102.033 43.3708 101.468 43.8625C100.903 44.3542 100.449 44.9585 100.137 45.6359C99.824 46.3133 99.6595 47.0484 99.6541 47.7931V60.8593C99.661 61.2841 99.5639 61.7044 99.371 62.084C99.178 62.4636 98.8951 62.7913 98.5463 63.039C98.1975 63.2868 97.7932 63.4472 97.3681 63.5066C96.943 63.5659 96.5097 63.5224 96.1052 63.3799C95.5756 63.1927 95.1183 62.8463 94.7972 62.3893C94.4761 61.9323 94.3073 61.3874 94.3144 60.8308V47.7849C94.3296 45.0245 95.4488 42.3824 97.427 40.4366C99.4052 38.4908 102.082 37.3996 104.87 37.4018C106.376 37.396 107.864 37.7139 109.233 38.3338C110.602 38.9536 111.818 39.8605 112.798 40.9916C113.777 39.8605 114.994 38.9536 116.363 38.3338C117.731 37.7139 119.22 37.396 120.725 37.4018C123.516 37.3996 126.194 38.4925 128.173 40.4409C130.151 42.3894 131.269 45.0346 131.281 47.7971C131.281 47.8906 131.281 47.9435 131.228 47.9923Z" fill="#FDFDFD"/>
<path d="M134.3 50.338C134.3 47.7562 135.074 45.2323 136.523 43.0856C137.972 40.9388 140.032 39.2657 142.442 38.2776C144.852 37.2896 147.504 37.0311 150.062 37.5348C152.62 38.0385 154.97 39.2817 156.815 41.1074C158.659 42.933 159.916 45.2591 160.424 47.7913C160.933 50.3236 160.672 52.9483 159.674 55.3336C158.676 57.7189 156.985 59.7577 154.816 61.1921C152.647 62.6265 150.097 63.3921 147.489 63.3921C143.992 63.39 140.638 62.0139 138.165 59.5662C135.692 57.1186 134.302 53.7995 134.3 50.338ZM139.504 50.338C139.504 51.9021 139.973 53.431 140.851 54.7315C141.729 56.0319 142.977 57.0454 144.437 57.6438C145.897 58.2421 147.503 58.3985 149.053 58.093C150.603 57.7876 152.026 57.0341 153.144 55.9279C154.261 54.8216 155.021 53.4123 155.329 51.8782C155.637 50.344 155.478 48.754 154.873 47.3092C154.267 45.8645 153.243 44.6298 151.928 43.7614C150.614 42.8931 149.069 42.43 147.489 42.4308C145.371 42.4361 143.342 43.2708 141.844 44.7524C140.347 46.234 139.502 48.2422 139.496 50.338H139.504ZM149.695 32.1168L147.436 29.8808L145.246 32.1168C144.756 32.5993 144.092 32.8693 143.401 32.8674C142.71 32.8655 142.047 32.5918 141.56 32.1066C141.072 31.6214 140.8 30.9644 140.802 30.2802C140.803 29.5959 141.08 28.9404 141.57 28.4579C145.402 24.608 145.509 24.5063 145.616 24.3925C146.1 23.9033 146.76 23.6228 147.452 23.6119C147.804 23.6118 148.153 23.6808 148.478 23.8148C148.803 23.9487 149.098 24.1451 149.345 24.3925L153.391 28.4579C153.882 28.9431 154.157 29.6012 154.157 30.2874C154.157 30.9735 153.882 31.6316 153.391 32.1168C152.901 32.602 152.236 32.8746 151.543 32.8746C150.85 32.8746 150.185 32.602 149.695 32.1168Z" fill="#FDFDFD"/>
<path d="M256.109 22.7664C256.418 22.8517 256.73 22.9168 257.025 23.0225C257.725 23.2923 258.327 23.7641 258.753 24.3767C259.178 24.9893 259.408 25.7143 259.412 26.4577C259.412 30.0489 259.412 33.64 259.412 37.2311V37.8288C260.391 37.3012 261.424 36.8761 262.492 36.5604C270.124 34.4138 278.511 38.402 280.688 46.667C281.2 48.5939 281.305 50.6048 280.995 52.5735C280.685 54.5423 279.968 56.4264 278.889 58.1081C277.809 59.7897 276.39 61.2325 274.721 62.3461C273.051 63.4596 271.168 64.2198 269.187 64.5792C261.305 66.0062 253.555 60.6154 252.273 52.8301C252.139 52.013 252.071 51.1863 252.072 50.3584C252.072 42.4606 252.072 34.5615 252.072 26.661C252.072 24.6283 253.119 23.3274 255.103 22.868C255.169 22.868 255.23 22.868 255.243 22.7664H256.109ZM259.42 50.2161C259.408 51.1246 259.579 52.0263 259.924 52.8683C260.269 53.7104 260.78 54.4758 261.428 55.1196C262.076 55.7633 262.847 56.2726 263.696 56.6173C264.546 56.9621 265.456 57.1355 266.374 57.1273C267.75 57.1289 269.096 56.7266 270.242 55.9713C271.387 55.216 272.281 54.1415 272.81 52.8837C273.339 51.6259 273.479 50.2412 273.213 48.9045C272.947 47.5678 272.286 46.3392 271.315 45.3739C270.344 44.4085 269.105 43.7498 267.756 43.481C266.407 43.2122 265.007 43.3453 263.734 43.8635C262.461 44.3817 261.372 45.2617 260.604 46.3924C259.836 47.5231 259.424 48.8537 259.42 50.2161Z" fill="#FDFDFD"/>
<path d="M162.871 26.096C163.027 26.0472 162.966 25.9049 162.99 25.8073C163.171 24.8949 163.703 24.0878 164.474 23.5568C165.246 23.0257 166.195 22.8122 167.122 22.9615C168.024 23.0853 168.848 23.5342 169.436 24.2221C170.025 24.9101 170.336 25.7887 170.31 26.6895C170.31 32.1318 170.31 37.5754 170.31 43.0203V43.6464C170.868 43.2886 171.361 42.9796 171.846 42.6625L181.17 36.5888C181.569 36.264 182.033 36.0257 182.531 35.8892C183.029 35.7527 183.55 35.7212 184.062 35.7966C184.573 35.872 185.062 36.0526 185.499 36.3269C185.935 36.6011 186.308 36.9629 186.595 37.3888C186.881 37.8147 187.074 38.2953 187.161 38.7996C187.248 39.3038 187.227 39.8205 187.1 40.3163C186.973 40.8122 186.742 41.2761 186.422 41.6781C186.102 42.0801 185.701 42.4113 185.244 42.6504C182.632 44.3579 180.014 46.0572 177.391 47.7484C177.103 47.9354 177.021 48.0371 177.284 48.346C180.192 51.78 183.089 55.2247 185.975 58.6803C186.364 59.1086 186.645 59.6217 186.796 60.1777C186.946 60.7338 186.962 61.3172 186.842 61.8805C186.722 62.4438 186.469 62.9711 186.105 63.4196C185.74 63.868 185.274 64.225 184.743 64.4614C184.019 64.8036 183.2 64.8958 182.417 64.7234C181.634 64.5509 180.931 64.1237 180.422 63.51C177.322 59.8213 174.223 56.1327 171.123 52.444C171.008 52.3057 170.963 52.009 170.675 52.1066C170.388 52.2041 170.326 52.4684 170.326 52.7733C170.326 55.5188 170.326 58.2643 170.326 61.0098C170.357 61.8866 170.068 62.745 169.512 63.4286C168.956 64.1122 168.171 64.5753 167.299 64.7337C166.396 64.9113 165.459 64.7443 164.676 64.2662C163.893 63.7881 163.321 63.0343 163.077 62.1563C163.031 61.9977 163.077 61.7944 162.888 61.6887V61.4936C163.072 61.3594 162.978 61.1643 162.978 61.0017C162.978 49.5453 162.978 38.089 162.978 26.6326C162.978 26.4863 163.081 26.3033 162.888 26.1936L162.871 26.096Z" fill="#FDFDFD"/>
<path d="M162.871 26.1935C163.064 26.3032 162.962 26.4862 162.962 26.6325C162.962 38.0889 162.962 49.5453 162.962 61.0016C162.962 61.1642 163.056 61.3594 162.871 61.4935V26.1935Z" fill="#FDFDFD"/>
<path d="M211.84 53.8709C211.84 51.5333 211.737 49.1876 211.864 46.854C212.123 42.008 216.013 37.6336 220.835 36.6254C224.749 35.8123 228.228 36.6579 231.268 39.2842C231.473 39.459 231.572 39.4184 231.74 39.2842C232.876 38.2702 234.203 37.4887 235.646 36.9849C237.088 36.4812 238.617 36.265 240.144 36.349C245.291 36.5157 250.051 40.5607 250.983 45.5775C251.13 46.3592 251.203 47.1526 251.201 47.9476C251.201 52.2569 251.201 56.5636 251.201 60.8675C251.186 61.7469 250.852 62.5915 250.259 63.2468C249.667 63.9021 248.855 64.3242 247.974 64.4358C247.093 64.5473 246.2 64.3409 245.46 63.8544C244.72 63.3678 244.181 62.6337 243.943 61.7863C243.868 61.4707 243.834 61.147 243.841 60.8228C243.841 56.6923 243.841 52.5659 243.841 48.4395C243.916 47.1619 243.481 45.9063 242.629 44.9433C242.046 44.3203 241.287 43.885 240.451 43.6939C239.615 43.5027 238.74 43.5645 237.94 43.8711C237.14 44.1777 236.451 44.7151 235.963 45.4137C235.475 46.1123 235.21 46.9398 235.203 47.7891C235.203 50.3584 235.203 52.9237 235.203 55.5134V60.8269C235.219 61.7452 234.886 62.6362 234.27 63.3228C233.654 64.0095 232.799 64.4415 231.876 64.5332C230.952 64.6248 230.028 64.3694 229.286 63.8176C228.544 63.2658 228.039 62.4579 227.871 61.5546C227.837 61.3299 227.823 61.1027 227.83 60.8756C227.83 56.5216 227.83 52.1634 227.797 47.8094C227.751 46.7783 227.344 45.7952 226.645 45.0289C225.947 44.2626 225 43.7608 223.969 43.6098C222.931 43.5077 221.89 43.7772 221.036 44.3694C220.181 44.9616 219.569 45.8373 219.311 46.8377C219.211 47.2365 219.162 47.6464 219.167 48.0574C219.167 52.3179 219.167 56.5758 219.167 60.8309C219.214 61.3384 219.153 61.8498 218.989 62.3326C218.824 62.8154 218.56 63.2589 218.212 63.6346C217.864 64.0103 217.441 64.31 216.969 64.5145C216.498 64.7189 215.988 64.8237 215.474 64.822C214.959 64.8203 214.45 64.7121 213.98 64.5045C213.51 64.297 213.089 63.9945 212.743 63.6165C212.398 63.2385 212.137 62.7933 211.975 62.3094C211.814 61.8255 211.757 61.3136 211.807 60.8065V53.9319L211.84 53.8709Z" fill="#FDFDFD"/>
<path d="M187.553 46.8418C187.553 44.5163 187.553 42.195 187.553 39.8696C187.518 39.1312 187.717 38.4007 188.123 37.7803C188.529 37.1598 189.121 36.6807 189.816 36.4099C190.464 36.1189 191.186 36.028 191.887 36.1491C192.588 36.2702 193.236 36.5977 193.747 37.0888C194.15 37.4494 194.466 37.8946 194.673 38.392C194.88 38.8893 194.972 39.4261 194.942 39.9631C194.942 44.2372 194.942 48.5099 194.942 52.7813C194.925 53.7877 195.259 54.7691 195.888 55.5605C196.516 56.352 197.4 56.9052 198.392 57.1273C199.013 57.2542 199.655 57.2439 200.271 57.0971C200.888 56.9503 201.464 56.6706 201.959 56.278C202.453 55.8855 202.854 55.3896 203.133 54.826C203.412 54.2623 203.562 53.6447 203.572 53.0172C203.572 48.6631 203.572 44.309 203.572 39.955C203.57 39.3362 203.727 38.7271 204.029 38.1848C204.33 37.6425 204.765 37.1847 205.293 36.8541C205.822 36.5236 206.426 36.331 207.051 36.2946C207.675 36.2581 208.298 36.3789 208.862 36.6457C209.479 36.913 210.003 37.352 210.372 37.9092C210.741 38.4665 210.939 39.1179 210.94 39.7842C210.985 44.3659 211.047 48.9477 210.92 53.5253C210.76 59.3186 205.851 64.1239 199.986 64.4369C197.117 64.6244 194.279 63.7566 192.017 62.0001C189.755 60.2437 188.228 57.7223 187.729 54.9198C187.606 54.2369 187.547 53.5442 187.553 52.8505C187.553 50.8381 187.553 48.8379 187.553 46.8418Z" fill="#FDFDFD"/>
<path d="M281.612 46.6386V39.8615C281.562 39.3544 281.62 38.8425 281.781 38.3586C281.942 37.8748 282.204 37.4296 282.549 37.0516C282.894 36.6736 283.315 36.3711 283.785 36.1635C284.255 35.9559 284.764 35.8478 285.279 35.8461C285.794 35.8444 286.303 35.9491 286.775 36.1536C287.246 36.358 287.67 36.6577 288.017 37.0335C288.365 37.4092 288.63 37.8526 288.794 38.3354C288.959 38.8182 289.02 39.3297 288.973 39.8371C288.973 44.0272 288.973 48.22 288.973 52.4156C288.928 53.4428 289.206 54.4585 289.77 55.3223C290.265 56.0772 290.994 56.6533 291.848 56.9646C292.701 57.276 293.633 57.306 294.505 57.0501C295.403 56.7923 296.192 56.2522 296.752 55.5114C297.312 54.7706 297.614 53.8694 297.611 52.944C297.611 49.8381 297.611 46.7321 297.611 43.6301C297.611 42.4105 297.611 41.1909 297.611 39.9713C297.573 39.4692 297.64 38.9648 297.808 38.4897C297.976 38.0145 298.242 37.5787 298.588 37.2097C298.934 36.8407 299.353 36.5464 299.819 36.3451C300.285 36.1438 300.788 36.0399 301.297 36.0399C301.806 36.0399 302.309 36.1438 302.775 36.3451C303.241 36.5464 303.661 36.8407 304.007 37.2097C304.353 37.5787 304.618 38.0145 304.786 38.4897C304.954 38.9648 305.021 39.4692 304.984 39.9713C304.984 44.3294 304.984 48.6848 304.984 53.0375C304.953 55.8842 303.863 58.6198 301.923 60.7213C299.983 62.8228 297.328 64.1428 294.466 64.4291C291.605 64.7154 288.737 63.9477 286.411 62.273C284.085 60.5982 282.464 58.1338 281.859 55.3508C281.687 54.6067 281.603 53.8454 281.608 53.0822C281.612 50.9316 281.612 48.7851 281.612 46.6386Z" fill="#FDFDFD"/>
</g>
<defs>
<clipPath id="clip0_1_134">
<rect width="305" height="87" fill="white"/>
</clipPath>
</defs>
</svg>
