<svg width="103" height="100" viewBox="0 0 103 100" fill="none" xmlns="http://www.w3.org/2000/svg">
<g clip-path="url(#clip0_39_86)">
<path d="M-4.48459e-05 43.215C0.472441 42.2366 1.1338 41.3593 1.9467 40.6327C12.6655 30.0165 23.3842 19.4004 34.103 8.78418C36.2279 6.67529 37.8358 6.63233 40.1215 8.53894C48.7892 15.8124 57.4583 23.0874 66.1289 30.3638C66.5634 30.7468 66.8459 30.9577 67.4021 30.4068C74.8213 23.0042 82.2562 15.6201 89.7072 8.25482C89.855 8.10418 90.1027 8.00532 90.081 7.63088L83.9974 8.0827C81.3119 8.28499 79.3955 6.13296 80.0865 3.67546C80.2778 3.0028 80.6712 2.40379 81.2145 1.95791C81.7578 1.51203 82.4254 1.24048 83.1283 1.17931C88.4384 0.748924 93.7529 0.365789 99.0717 0.00856926C101.496 -0.154977 103.161 1.51941 102.983 3.96399C102.661 8.26785 102.266 12.5717 101.896 16.8756C101.814 17.8654 101.753 18.8639 101.605 19.8452C101.474 20.6901 101.026 21.4547 100.35 21.9862C99.6735 22.5176 98.8198 22.7766 97.9592 22.7114C97.0945 22.6717 96.2781 22.3051 95.6782 21.6869C95.0783 21.0688 94.7407 20.2463 94.7349 19.3889C94.7349 17.7664 94.9522 16.148 95.0695 14.5255C95.1087 13.9746 95.1478 13.428 95.1912 12.8815L94.9479 12.718C94.7417 13.0078 94.5182 13.2852 94.2786 13.5487C86.2048 21.5625 78.1266 29.5746 70.0441 37.5855C67.9974 39.6169 66.3983 39.6902 64.1778 37.831C55.5535 30.6034 46.938 23.3672 38.3311 16.1224C37.5924 15.4983 37.223 15.4896 36.5147 16.1911C26.5144 26.1502 16.4924 36.0907 6.44863 46.0125C5.57954 46.8733 4.67567 47.5102 3.38507 47.4585C1.60344 47.3897 0.660458 46.2879 -0.00439453 44.8203L-4.48459e-05 43.215Z" fill="#FDFDFD"/>
<path d="M91.6628 70.3034V95.6102C91.6628 98.7692 90.4156 99.9957 87.2174 99.9957H74.242C71.4565 99.9957 70.0746 98.6529 70.0703 95.9285C70.0703 83.608 70.0703 71.286 70.0703 58.9627C70.0456 58.3663 70.1465 57.7714 70.3664 57.2157C70.5863 56.66 70.9205 56.1557 71.3478 55.7348C76.0322 51.1211 80.6905 46.4815 85.3706 41.8635C87.1305 40.1419 89.4814 40.1421 90.898 41.8851C91.6019 42.7459 91.6671 43.7616 91.6671 44.7988L91.6628 70.3034Z" fill="#FDFDFD"/>
<path d="M33.4121 70.3293V95.722C33.4121 98.7132 32.1434 99.9828 29.158 99.9828H15.8783C13.2233 99.9828 11.8632 98.6271 11.8632 95.9931C11.8632 83.6353 11.8632 71.2806 11.8632 58.9285C11.8337 58.3337 11.9315 57.7393 12.1501 57.1845C12.3688 56.6297 12.7034 56.127 13.132 55.7092C17.812 51.0912 22.5008 46.486 27.1373 41.8249C29.3101 39.673 32.3519 40.5122 33.221 42.8406C33.4018 43.4476 33.4753 44.081 33.4382 44.7128C33.418 53.2574 33.4092 61.7962 33.4121 70.3293Z" fill="#FDFDFD"/>
<path d="M40.9862 70.2862C40.9862 61.7531 40.9862 53.2187 40.9862 44.6827C40.9862 43.3184 41.2339 42.1004 42.4028 41.2396C43.8803 40.1593 45.7487 40.3789 47.2088 41.8121C49.8161 44.3599 52.3799 46.9251 54.9654 49.4859C57.0513 51.5517 59.124 53.6346 61.2315 55.679C61.6694 56.0892 62.0148 56.5868 62.2447 57.1386C62.4746 57.6905 62.584 58.2842 62.5656 58.881C62.5656 71.2675 62.5656 83.6554 62.5656 96.0448C62.5656 98.5884 61.149 99.9829 58.5809 99.9872C54.0558 99.9872 49.5293 99.9872 45.0014 99.9872C42.3507 99.9872 41.0079 98.6444 41.0036 95.9803C40.9891 87.4185 40.9833 78.8537 40.9862 70.2862Z" fill="#FDFDFD"/>
</g>
<defs>
<clipPath id="clip0_39_86">
<rect width="103" height="100" fill="white"/>
</clipPath>
</defs>
</svg>
