<svg width="59" height="60" viewBox="0 0 59 60" fill="none" xmlns="http://www.w3.org/2000/svg">
<path d="M0.333374 29.9999C0.333374 46.1696 13.4415 59.2777 29.6112 59.2777C45.7808 59.2777 58.8889 46.1696 58.8889 29.9999C58.8889 13.8303 45.7808 0.722168 29.6112 0.722168C13.4415 0.722168 0.333374 13.8303 0.333374 29.9999Z" fill="#FDFDFD"/>
<path d="M15.1552 29.4661C23.0143 26.042 28.255 23.7846 30.8772 22.694C38.3641 19.5799 39.9198 19.039 40.9338 19.0209C41.1568 19.0172 41.6554 19.0725 41.9784 19.3346C42.2512 19.5559 42.3262 19.8548 42.3621 20.0646C42.398 20.2745 42.4428 20.7525 42.4072 21.1259C42.0015 25.3888 40.246 35.7338 39.3529 40.5083C38.9749 42.5286 38.2308 43.206 37.5104 43.2723C35.9449 43.4163 34.756 42.2376 33.2397 41.2436C30.8669 39.6883 29.5265 38.72 27.2233 37.2023C24.5616 35.4482 26.2871 34.4842 27.804 32.9087C28.2009 32.4963 35.0989 26.2221 35.2324 25.6529C35.2491 25.5817 35.2646 25.3164 35.107 25.1763C34.9493 25.0362 34.7167 25.0841 34.5488 25.1222C34.3108 25.1762 30.5203 27.6816 23.1772 32.6384C22.1013 33.3772 21.1267 33.7372 20.2536 33.7183C19.291 33.6975 17.4394 33.1741 16.0629 32.7266C14.3746 32.1778 13.0327 31.8876 13.1495 30.9556C13.2104 30.4701 13.8789 29.9736 15.1552 29.4661Z" fill="#8000FF"/>
</svg>
